<svg width="241" height="165" viewBox="0 0 241 165" fill="none" xmlns="http://www.w3.org/2000/svg">
<rect x="0.775024" y="0.64978" width="239.642" height="163.756" rx="11.9821" fill="white"/>
<rect x="25.1395" y="139.243" width="0.399405" height="190.915" transform="rotate(-90 25.1395 139.243)" fill="#EEEEF7"/>
<rect x="25.1387" y="122.867" width="0.399405" height="190.915" transform="rotate(-90 25.1387 122.867)" fill="#EEEEF7"/>
<rect x="25.1387" y="106.492" width="0.399405" height="190.915" transform="rotate(-90 25.1387 106.492)" fill="#EEEEF7"/>
<rect x="25.1387" y="90.1163" width="0.399405" height="190.915" transform="rotate(-90 25.1387 90.1163)" fill="#EEEEF7"/>
<rect x="25.1387" y="73.7407" width="0.399405" height="190.915" transform="rotate(-90 25.1387 73.7407)" fill="#EEEEF7"/>
<rect x="25.1387" y="57.3651" width="0.399405" height="190.915" transform="rotate(-90 25.1387 57.3651)" fill="#EEEEF7"/>
<rect x="25.1387" y="40.9896" width="0.399405" height="190.915" transform="rotate(-90 25.1387 40.9896)" fill="#EEEEF7"/>
<rect x="25.1387" y="24.614" width="0.399405" height="190.915" transform="rotate(-90 25.1387 24.614)" fill="#EEEEF7"/>
<path d="M25.1395 147.039H24.7042V144.153L23.8313 144.474V144.081L25.0717 143.615H25.1395V147.039ZM28.4744 144.521C28.4744 144.691 28.4291 144.842 28.3387 144.975C28.2497 145.107 28.1288 145.211 27.9759 145.286C28.1538 145.362 28.2942 145.474 28.3972 145.621C28.5017 145.767 28.554 145.933 28.554 146.119C28.554 146.414 28.4541 146.649 28.2544 146.823C28.0563 146.998 27.7949 147.086 27.4704 147.086C27.1428 147.086 26.8799 146.998 26.6818 146.823C26.4852 146.647 26.3869 146.412 26.3869 146.119C26.3869 145.935 26.4368 145.769 26.5367 145.621C26.6381 145.472 26.7777 145.36 26.9556 145.284C26.8042 145.209 26.6849 145.105 26.5975 144.972C26.5101 144.84 26.4664 144.689 26.4664 144.521C26.4664 144.234 26.5585 144.006 26.7426 143.837C26.9267 143.669 27.1693 143.585 27.4704 143.585C27.77 143.585 28.0118 143.669 28.1959 143.837C28.3816 144.006 28.4744 144.234 28.4744 144.521ZM28.121 146.11C28.121 145.919 28.0602 145.764 27.9385 145.644C27.8183 145.524 27.6608 145.464 27.4657 145.464C27.2707 145.464 27.1139 145.523 26.9953 145.642C26.8783 145.76 26.8198 145.916 26.8198 146.11C26.8198 146.303 26.8768 146.455 26.9907 146.566C27.1061 146.677 27.266 146.732 27.4704 146.732C27.6732 146.732 27.8324 146.677 27.9478 146.566C28.0633 146.454 28.121 146.302 28.121 146.11ZM27.4704 143.94C27.3004 143.94 27.1623 143.993 27.0562 144.099C26.9517 144.204 26.8994 144.347 26.8994 144.528C26.8994 144.701 26.9509 144.841 27.0539 144.949C27.1584 145.055 27.2972 145.108 27.4704 145.108C27.6436 145.108 27.7817 145.055 27.8846 144.949C27.9892 144.841 28.0414 144.701 28.0414 144.528C28.0414 144.354 27.9876 144.213 27.88 144.104C27.7723 143.995 27.6358 143.94 27.4704 143.94ZM30.0447 145.768H28.9027V145.415H30.0447V145.768ZM32.6564 147.039H30.4238V146.728L31.6033 145.417C31.7781 145.219 31.8982 145.058 31.9637 144.935C32.0308 144.81 32.0643 144.681 32.0643 144.549C32.0643 144.371 32.0105 144.225 31.9029 144.111C31.7952 143.997 31.6517 143.94 31.4723 143.94C31.257 143.94 31.0892 144.002 30.9691 144.125C30.8505 144.247 30.7912 144.417 30.7912 144.635H30.3583C30.3583 144.322 30.4589 144.068 30.6602 143.875C30.863 143.681 31.1337 143.585 31.4723 143.585C31.789 143.585 32.0394 143.668 32.2235 143.835C32.4076 144 32.4996 144.221 32.4996 144.497C32.4996 144.833 32.2859 145.232 31.8584 145.695L30.9457 146.685H32.6564V147.039ZM34.9429 145.894H35.4156V146.248H34.9429V147.039H34.5076V146.248H32.956V145.993L34.4818 143.631H34.9429V145.894ZM33.4474 145.894H34.5076V144.223L34.4561 144.317L33.4474 145.894Z" fill="#8794BA"/>
<path d="M115.41 145.124H115.735C115.94 145.121 116.101 145.067 116.218 144.963C116.335 144.858 116.393 144.717 116.393 144.539C116.393 144.14 116.194 143.94 115.796 143.94C115.609 143.94 115.459 143.994 115.347 144.102C115.236 144.208 115.181 144.349 115.181 144.525H114.748C114.748 144.255 114.846 144.032 115.043 143.854C115.241 143.674 115.492 143.585 115.796 143.585C116.118 143.585 116.37 143.67 116.552 143.84C116.735 144.01 116.826 144.246 116.826 144.549C116.826 144.697 116.778 144.84 116.681 144.979C116.586 145.118 116.456 145.222 116.29 145.291C116.477 145.35 116.622 145.448 116.723 145.585C116.826 145.723 116.878 145.89 116.878 146.089C116.878 146.394 116.778 146.637 116.578 146.816C116.378 146.996 116.119 147.086 115.799 147.086C115.479 147.086 115.218 146.999 115.017 146.826C114.817 146.653 114.717 146.424 114.717 146.14H115.153C115.153 146.32 115.211 146.463 115.328 146.571C115.445 146.678 115.602 146.732 115.799 146.732C116.008 146.732 116.168 146.678 116.278 146.568C116.389 146.459 116.445 146.302 116.445 146.098C116.445 145.9 116.384 145.748 116.262 145.642C116.14 145.536 115.965 145.481 115.735 145.478H115.41V145.124ZM117.671 145.33L117.844 143.631H119.59V144.032H118.211L118.109 144.961C118.275 144.862 118.465 144.813 118.677 144.813C118.988 144.813 119.234 144.916 119.417 145.122C119.599 145.326 119.691 145.603 119.691 145.953C119.691 146.304 119.595 146.581 119.405 146.784C119.216 146.985 118.952 147.086 118.612 147.086C118.311 147.086 118.065 147.002 117.874 146.835C117.684 146.668 117.576 146.437 117.549 146.142H117.959C117.985 146.337 118.055 146.485 118.167 146.585C118.279 146.683 118.428 146.732 118.612 146.732C118.813 146.732 118.971 146.664 119.084 146.526C119.2 146.389 119.258 146.199 119.258 145.958C119.258 145.73 119.195 145.547 119.07 145.41C118.947 145.271 118.783 145.202 118.577 145.202C118.388 145.202 118.24 145.243 118.132 145.326L118.017 145.419L117.671 145.33ZM121.109 145.768H119.967V145.415H121.109V145.768ZM123.316 145.894H123.788V146.248H123.316V147.039H122.88V146.248H121.329V145.993L122.855 143.631H123.316V145.894ZM121.82 145.894H122.88V144.223L122.829 144.317L121.82 145.894ZM126.007 145.894H126.48V146.248H126.007V147.039H125.572V146.248H124.02V145.993L125.546 143.631H126.007V145.894ZM124.511 145.894H125.572V144.223L125.52 144.317L124.511 145.894Z" fill="#8794BA"/>
<path d="M209.934 143.629V143.996H209.855C209.518 144.003 209.249 144.103 209.049 144.296C208.85 144.489 208.734 144.762 208.703 145.113C208.883 144.907 209.127 144.804 209.438 144.804C209.734 144.804 209.971 144.908 210.147 145.117C210.325 145.326 210.414 145.596 210.414 145.927C210.414 146.278 210.318 146.559 210.126 146.77C209.936 146.98 209.68 147.086 209.358 147.086C209.032 147.086 208.768 146.961 208.565 146.711C208.362 146.46 208.261 146.137 208.261 145.742V145.576C208.261 144.949 208.394 144.47 208.661 144.139C208.929 143.807 209.328 143.637 209.857 143.629H209.934ZM209.365 145.164C209.217 145.164 209.081 145.209 208.956 145.298C208.831 145.387 208.744 145.498 208.696 145.632V145.791C208.696 146.072 208.759 146.298 208.886 146.47C209.012 146.642 209.17 146.728 209.358 146.728C209.553 146.728 209.706 146.656 209.817 146.512C209.929 146.369 209.986 146.181 209.986 145.948C209.986 145.714 209.929 145.525 209.815 145.382C209.702 145.237 209.553 145.164 209.365 145.164ZM211.125 145.33L211.298 143.631H213.044V144.032H211.666L211.563 144.961C211.73 144.862 211.919 144.813 212.132 144.813C212.442 144.813 212.689 144.916 212.871 145.122C213.054 145.326 213.145 145.603 213.145 145.953C213.145 146.304 213.05 146.581 212.859 146.784C212.671 146.985 212.406 147.086 212.066 147.086C211.765 147.086 211.519 147.002 211.329 146.835C211.139 146.668 211.03 146.437 211.004 146.142H211.413C211.44 146.337 211.509 146.485 211.621 146.585C211.734 146.683 211.882 146.732 212.066 146.732C212.267 146.732 212.425 146.664 212.539 146.526C212.654 146.389 212.712 146.199 212.712 145.958C212.712 145.73 212.65 145.547 212.525 145.41C212.402 145.271 212.237 145.202 212.031 145.202C211.842 145.202 211.694 145.243 211.586 145.326L211.472 145.419L211.125 145.33ZM214.902 145.211H215.853V145.621H214.902V146.697H214.467V145.621H213.517V145.211H214.467V144.216H214.902V145.211Z" fill="#8794BA"/>
<path opacity="0.1" d="M145.718 80.5306L173.272 83.9255L194.863 68.1865L216.453 47.1803V138.844H25.1388V129.076L42.0493 118.808L59.9593 109.074L89.0616 114.797L118.164 115.302L145.718 80.5306Z" fill="#EF2A82"/>
<path d="M216.653 47.1803L194.863 67.1505L173.272 83.5261L145.718 80.5306L118.164 115.403L89.0616 114.895L59.9593 109.138L42.0493 118.929L25.1388 129.258" stroke="#EF2A82" stroke-width="1.59762"/>
<path d="M216.653 37.5946L194.863 40.1908L173.272 70.7452L145.718 63.7556L118.164 97.9046L89.0614 106.292L59.9592 95.1088L42.0491 91.9696L25.3384 115.878" stroke="#0088F0" stroke-width="1.59762"/>
</svg>
