<svg width="240" height="164" viewBox="0 0 240 164" fill="none" xmlns="http://www.w3.org/2000/svg">
<rect x="0.19812" y="0.162415" width="239.642" height="163.756" rx="11.9821" fill="white"/>
<path d="M186.091 50.4966L181.455 60.8927H179.963L184.584 50.8657H178.525V49.6969H186.091V50.4966ZM193.158 55.9715C192.861 56.3252 192.504 56.6097 192.089 56.825C191.679 57.0403 191.228 57.148 190.736 57.148C190.09 57.148 189.526 56.989 189.044 56.6712C188.567 56.3534 188.198 55.9074 187.937 55.3333C187.675 54.754 187.545 54.1158 187.545 53.4186C187.545 52.6702 187.686 51.996 187.968 51.3963C188.255 50.7965 188.66 50.3377 189.183 50.0199C189.705 49.702 190.316 49.5431 191.013 49.5431C192.12 49.5431 192.991 49.9584 193.627 50.7888C194.268 51.6141 194.588 52.7419 194.588 54.1722V54.5874C194.588 56.766 194.158 58.3578 193.296 59.3625C192.435 60.3621 191.136 60.8748 189.398 60.9004H189.121V59.7008H189.421C190.595 59.6803 191.497 59.3753 192.128 58.7858C192.758 58.1912 193.102 57.253 193.158 55.9715ZM190.967 55.9715C191.443 55.9715 191.882 55.8254 192.281 55.5332C192.686 55.241 192.981 54.8796 193.166 54.449V53.88C193.166 52.947 192.963 52.1883 192.558 51.6039C192.153 51.0195 191.641 50.7273 191.02 50.7273C190.395 50.7273 189.893 50.9682 189.513 51.4501C189.134 51.9268 188.944 52.5574 188.944 53.3417C188.944 54.1055 189.126 54.736 189.49 55.2333C189.859 55.7254 190.351 55.9715 190.967 55.9715ZM196.426 51.8499C196.426 51.1784 196.639 50.6248 197.064 50.189C197.495 49.7533 198.046 49.5354 198.717 49.5354C199.399 49.5354 199.95 49.7559 200.371 50.1967C200.796 50.6325 201.009 51.1989 201.009 51.8961V52.442C201.009 53.1187 200.794 53.6723 200.363 54.1029C199.938 54.5284 199.394 54.7412 198.733 54.7412C198.066 54.7412 197.515 54.5284 197.08 54.1029C196.644 53.6723 196.426 53.1008 196.426 52.3882V51.8499ZM197.487 52.442C197.487 52.8419 197.6 53.1725 197.826 53.434C198.051 53.6903 198.354 53.8184 198.733 53.8184C199.097 53.8184 199.389 53.6928 199.609 53.4417C199.835 53.1905 199.948 52.847 199.948 52.4113V51.8499C199.948 51.4501 199.838 51.1195 199.617 50.858C199.397 50.5966 199.097 50.4659 198.717 50.4659C198.338 50.4659 198.038 50.5966 197.818 50.858C197.597 51.1195 197.487 51.4603 197.487 51.8807V52.442ZM201.878 58.1476C201.878 57.476 202.091 56.925 202.516 56.4944C202.947 56.0586 203.498 55.8408 204.169 55.8408C204.841 55.8408 205.392 56.0561 205.822 56.4867C206.253 56.9173 206.468 57.4889 206.468 58.2014V58.7474C206.468 59.4189 206.253 59.9725 205.822 60.4083C205.397 60.8389 204.851 61.0542 204.185 61.0542C203.518 61.0542 202.967 60.8414 202.531 60.416C202.096 59.9853 201.878 59.4138 201.878 58.7012V58.1476ZM202.939 58.7474C202.939 59.1523 203.052 59.4855 203.277 59.747C203.503 60.0033 203.805 60.1314 204.185 60.1314C204.554 60.1314 204.849 60.0059 205.069 59.7547C205.289 59.4984 205.4 59.1523 205.4 58.7166V58.1476C205.4 57.7426 205.287 57.412 205.061 57.1556C204.841 56.8993 204.543 56.7712 204.169 56.7712C203.805 56.7712 203.508 56.8993 203.277 57.1556C203.052 57.4068 202.939 57.7477 202.939 58.1783V58.7474ZM199.056 60.0469L198.248 59.5394L203.716 50.7888L204.523 51.2963L199.056 60.0469Z" fill="#0088F0"/>
<path d="M180.033 71.7305C180.033 71.3583 180.105 71.0237 180.25 70.7265C180.398 70.4293 180.601 70.1999 180.861 70.0384C181.123 69.877 181.422 69.7962 181.756 69.7962C182.273 69.7962 182.691 69.9753 183.01 70.3333C183.33 70.6914 183.49 71.1676 183.49 71.762V71.8077C183.49 72.1774 183.419 72.5098 183.276 72.8046C183.136 73.0972 182.933 73.3253 182.669 73.4892C182.407 73.653 182.105 73.7349 181.763 73.7349C181.248 73.7349 180.831 73.5559 180.51 73.1978C180.192 72.8397 180.033 72.3658 180.033 71.7761V71.7305ZM180.686 71.8077C180.686 72.2289 180.783 72.5671 180.977 72.8222C181.174 73.0773 181.436 73.2048 181.763 73.2048C182.093 73.2048 182.355 73.0761 182.55 72.8187C182.744 72.5589 182.841 72.1962 182.841 71.7305C182.841 71.3139 182.742 70.9769 182.543 70.7195C182.346 70.4597 182.084 70.3298 181.756 70.3298C181.436 70.3298 181.177 70.4574 180.981 70.7124C180.784 70.9675 180.686 71.3326 180.686 71.8077ZM187.513 71.8077C187.513 72.3857 187.381 72.8514 187.117 73.2048C186.852 73.5582 186.494 73.7349 186.042 73.7349C185.581 73.7349 185.219 73.5886 184.954 73.2961V75.125H184.305V69.8664H184.898L184.93 70.2877C185.194 69.96 185.562 69.7962 186.032 69.7962C186.488 69.7962 186.849 69.9682 187.113 70.3123C187.38 70.6563 187.513 71.1349 187.513 71.748V71.8077ZM186.864 71.734C186.864 71.3057 186.773 70.9675 186.59 70.7195C186.408 70.4714 186.157 70.3474 185.839 70.3474C185.446 70.3474 185.151 70.5217 184.954 70.8704V72.6853C185.149 73.0316 185.446 73.2048 185.846 73.2048C186.157 73.2048 186.404 73.0819 186.587 72.8362C186.771 72.5882 186.864 72.2207 186.864 71.734ZM189.223 68.9467V69.8664H189.932V70.3684H189.223V72.7239C189.223 72.876 189.254 72.9907 189.318 73.0679C189.381 73.1428 189.489 73.1802 189.641 73.1802C189.716 73.1802 189.818 73.1662 189.95 73.1381V73.6647C189.779 73.7115 189.613 73.7349 189.451 73.7349C189.161 73.7349 188.942 73.6471 188.795 73.4716C188.647 73.2961 188.573 73.0468 188.573 72.7239V70.3684H187.882V69.8664H188.573V68.9467H189.223ZM191.399 73.6647H190.75V69.8664H191.399V73.6647ZM190.697 68.859C190.697 68.7536 190.729 68.6647 190.792 68.5922C190.858 68.5196 190.954 68.4833 191.08 68.4833C191.206 68.4833 191.302 68.5196 191.368 68.5922C191.433 68.6647 191.466 68.7536 191.466 68.859C191.466 68.9643 191.433 69.052 191.368 69.1222C191.302 69.1924 191.206 69.2275 191.08 69.2275C190.954 69.2275 190.858 69.1924 190.792 69.1222C190.729 69.052 190.697 68.9643 190.697 68.859ZM192.27 71.7305C192.27 71.3583 192.342 71.0237 192.488 70.7265C192.635 70.4293 192.839 70.1999 193.098 70.0384C193.36 69.877 193.659 69.7962 193.994 69.7962C194.511 69.7962 194.928 69.9753 195.247 70.3333C195.567 70.6914 195.728 71.1676 195.728 71.762V71.8077C195.728 72.1774 195.656 72.5098 195.514 72.8046C195.373 73.0972 195.171 73.3253 194.906 73.4892C194.644 73.653 194.342 73.7349 194.001 73.7349C193.486 73.7349 193.068 73.5559 192.747 73.1978C192.429 72.8397 192.27 72.3658 192.27 71.7761V71.7305ZM192.923 71.8077C192.923 72.2289 193.02 72.5671 193.214 72.8222C193.411 73.0773 193.673 73.2048 194.001 73.2048C194.331 73.2048 194.593 73.0761 194.787 72.8187C194.981 72.5589 195.078 72.1962 195.078 71.7305C195.078 71.3139 194.979 70.9769 194.78 70.7195C194.583 70.4597 194.321 70.3298 193.994 70.3298C193.673 70.3298 193.414 70.4574 193.218 70.7124C193.021 70.9675 192.923 71.3326 192.923 71.8077ZM197.156 69.8664L197.177 70.3438C197.468 69.9788 197.847 69.7962 198.315 69.7962C199.117 69.7962 199.522 70.2491 199.529 71.1547V73.6647H198.88V71.1512C198.878 70.8774 198.814 70.675 198.69 70.5439C198.569 70.4129 198.378 70.3474 198.118 70.3474C197.908 70.3474 197.723 70.4035 197.564 70.5159C197.404 70.6282 197.28 70.7756 197.191 70.9582V73.6647H196.542V69.8664H197.156ZM204.36 73.6647H203.707V69.3364L202.397 69.8173V69.2275L204.258 68.529H204.36V73.6647Z" fill="#8794BA"/>
<path d="M185.653 97.3521C185.653 97.9109 185.504 98.4081 185.207 98.8439C184.915 99.2796 184.518 99.6205 184.015 99.8665C184.6 100.118 185.061 100.484 185.399 100.966C185.743 101.448 185.915 101.994 185.915 102.604C185.915 103.573 185.587 104.344 184.93 104.918C184.279 105.493 183.421 105.78 182.354 105.78C181.278 105.78 180.414 105.493 179.763 104.918C179.117 104.339 178.794 103.568 178.794 102.604C178.794 101.999 178.958 101.453 179.286 100.966C179.62 100.479 180.078 100.11 180.663 99.8589C180.165 99.6128 179.773 99.2719 179.486 98.8362C179.199 98.4004 179.056 97.9057 179.056 97.3521C179.056 96.4089 179.358 95.6604 179.963 95.1068C180.568 94.5532 181.365 94.2763 182.354 94.2763C183.339 94.2763 184.133 94.5532 184.738 95.1068C185.348 95.6604 185.653 96.4089 185.653 97.3521ZM184.492 102.573C184.492 101.948 184.292 101.438 183.892 101.043C183.498 100.648 182.98 100.451 182.339 100.451C181.698 100.451 181.183 100.646 180.793 101.035C180.409 101.425 180.217 101.938 180.217 102.573C180.217 103.209 180.404 103.709 180.778 104.073C181.157 104.437 181.683 104.619 182.354 104.619C183.021 104.619 183.544 104.437 183.923 104.073C184.302 103.704 184.492 103.204 184.492 102.573ZM182.354 95.4451C181.796 95.4451 181.342 95.6194 180.993 95.968C180.65 96.3115 180.478 96.7805 180.478 97.3752C180.478 97.9442 180.647 98.4056 180.986 98.7593C181.329 99.1079 181.785 99.2821 182.354 99.2821C182.923 99.2821 183.377 99.1079 183.715 98.7593C184.059 98.4056 184.231 97.9442 184.231 97.3752C184.231 96.8062 184.054 96.3422 183.7 95.9834C183.346 95.6245 182.898 95.4451 182.354 95.4451ZM194.934 95.2298L190.298 105.626H188.806L193.427 95.5989H187.368V94.4301H194.934V95.2298ZM196.426 96.5832C196.426 95.9116 196.639 95.358 197.064 94.9222C197.495 94.4865 198.046 94.2686 198.717 94.2686C199.399 94.2686 199.95 94.4891 200.371 94.9299C200.796 95.3657 201.009 95.9321 201.009 96.6293V97.1752C201.009 97.8519 200.794 98.4056 200.363 98.8362C199.938 99.2616 199.394 99.4744 198.733 99.4744C198.066 99.4744 197.515 99.2616 197.08 98.8362C196.644 98.4056 196.426 97.834 196.426 97.1214V96.5832ZM197.487 97.1752C197.487 97.5751 197.6 97.9057 197.826 98.1672C198.051 98.4235 198.354 98.5517 198.733 98.5517C199.097 98.5517 199.389 98.4261 199.609 98.1749C199.835 97.9237 199.948 97.5802 199.948 97.1445V96.5832C199.948 96.1833 199.838 95.8527 199.617 95.5912C199.397 95.3298 199.097 95.1991 198.717 95.1991C198.338 95.1991 198.038 95.3298 197.818 95.5912C197.597 95.8527 197.487 96.1936 197.487 96.6139V97.1752ZM201.878 102.881C201.878 102.209 202.091 101.658 202.516 101.228C202.947 100.792 203.498 100.574 204.169 100.574C204.841 100.574 205.392 100.789 205.822 101.22C206.253 101.65 206.468 102.222 206.468 102.935V103.481C206.468 104.152 206.253 104.706 205.822 105.141C205.397 105.572 204.851 105.787 204.185 105.787C203.518 105.787 202.967 105.575 202.531 105.149C202.096 104.719 201.878 104.147 201.878 103.434V102.881ZM202.939 103.481C202.939 103.886 203.052 104.219 203.277 104.48C203.503 104.737 203.805 104.865 204.185 104.865C204.554 104.865 204.849 104.739 205.069 104.488C205.289 104.232 205.4 103.886 205.4 103.45V102.881C205.4 102.476 205.287 102.145 205.061 101.889C204.841 101.633 204.543 101.504 204.169 101.504C203.805 101.504 203.508 101.633 203.277 101.889C203.052 102.14 202.939 102.481 202.939 102.912V103.481ZM199.056 104.78L198.248 104.273L203.716 95.522L204.523 96.0295L199.056 104.78Z" fill="#EF2A82"/>
<path d="M180.033 116.464C180.033 116.092 180.105 115.757 180.25 115.46C180.398 115.162 180.601 114.933 180.861 114.772C181.123 114.61 181.422 114.529 181.756 114.529C182.273 114.529 182.691 114.708 183.01 115.067C183.33 115.425 183.49 115.901 183.49 116.495V116.541C183.49 116.911 183.419 117.243 183.276 117.538C183.136 117.83 182.933 118.059 182.669 118.222C182.407 118.386 182.105 118.468 181.763 118.468C181.248 118.468 180.831 118.289 180.51 117.931C180.192 117.573 180.033 117.099 180.033 116.509V116.464ZM180.686 116.541C180.686 116.962 180.783 117.3 180.977 117.555C181.174 117.81 181.436 117.938 181.763 117.938C182.093 117.938 182.355 117.809 182.55 117.552C182.744 117.292 182.841 116.929 182.841 116.464C182.841 116.047 182.742 115.71 182.543 115.453C182.346 115.193 182.084 115.063 181.756 115.063C181.436 115.063 181.177 115.191 180.981 115.446C180.784 115.701 180.686 116.066 180.686 116.541ZM187.513 116.541C187.513 117.119 187.381 117.585 187.117 117.938C186.852 118.291 186.494 118.468 186.042 118.468C185.581 118.468 185.219 118.322 184.954 118.029V119.858H184.305V114.6H184.898L184.93 115.021C185.194 114.693 185.562 114.529 186.032 114.529C186.488 114.529 186.849 114.701 187.113 115.045C187.38 115.389 187.513 115.868 187.513 116.481V116.541ZM186.864 116.467C186.864 116.039 186.773 115.701 186.59 115.453C186.408 115.205 186.157 115.081 185.839 115.081C185.446 115.081 185.151 115.255 184.954 115.604V117.418C185.149 117.765 185.446 117.938 185.846 117.938C186.157 117.938 186.404 117.815 186.587 117.569C186.771 117.321 186.864 116.954 186.864 116.467ZM189.223 113.68V114.6H189.932V115.102H189.223V117.457C189.223 117.609 189.254 117.724 189.318 117.801C189.381 117.876 189.489 117.913 189.641 117.913C189.716 117.913 189.818 117.899 189.95 117.871V118.398C189.779 118.445 189.613 118.468 189.451 118.468C189.161 118.468 188.942 118.38 188.795 118.205C188.647 118.029 188.573 117.78 188.573 117.457V115.102H187.882V114.6H188.573V113.68H189.223ZM191.399 118.398H190.75V114.6H191.399V118.398ZM190.697 113.592C190.697 113.487 190.729 113.398 190.792 113.325C190.858 113.253 190.954 113.217 191.08 113.217C191.206 113.217 191.302 113.253 191.368 113.325C191.433 113.398 191.466 113.487 191.466 113.592C191.466 113.697 191.433 113.785 191.368 113.855C191.302 113.926 191.206 113.961 191.08 113.961C190.954 113.961 190.858 113.926 190.792 113.855C190.729 113.785 190.697 113.697 190.697 113.592ZM192.27 116.464C192.27 116.092 192.342 115.757 192.488 115.46C192.635 115.162 192.839 114.933 193.098 114.772C193.36 114.61 193.659 114.529 193.994 114.529C194.511 114.529 194.928 114.708 195.247 115.067C195.567 115.425 195.728 115.901 195.728 116.495V116.541C195.728 116.911 195.656 117.243 195.514 117.538C195.373 117.83 195.171 118.059 194.906 118.222C194.644 118.386 194.342 118.468 194.001 118.468C193.486 118.468 193.068 118.289 192.747 117.931C192.429 117.573 192.27 117.099 192.27 116.509V116.464ZM192.923 116.541C192.923 116.962 193.02 117.3 193.214 117.555C193.411 117.81 193.673 117.938 194.001 117.938C194.331 117.938 194.593 117.809 194.787 117.552C194.981 117.292 195.078 116.929 195.078 116.464C195.078 116.047 194.979 115.71 194.78 115.453C194.583 115.193 194.321 115.063 193.994 115.063C193.673 115.063 193.414 115.191 193.218 115.446C193.021 115.701 192.923 116.066 192.923 116.541ZM197.156 114.6L197.177 115.077C197.468 114.712 197.847 114.529 198.315 114.529C199.117 114.529 199.522 114.982 199.529 115.888V118.398H198.88V115.884C198.878 115.611 198.814 115.408 198.69 115.277C198.569 115.146 198.378 115.081 198.118 115.081C197.908 115.081 197.723 115.137 197.564 115.249C197.404 115.361 197.28 115.509 197.191 115.691V118.398H196.542V114.6H197.156ZM205.574 118.398H202.225V117.931L203.995 115.965C204.257 115.668 204.437 115.427 204.535 115.242C204.636 115.055 204.686 114.862 204.686 114.663C204.686 114.396 204.605 114.177 204.444 114.006C204.282 113.836 204.067 113.75 203.798 113.75C203.475 113.75 203.223 113.843 203.043 114.027C202.865 114.21 202.776 114.465 202.776 114.793H202.127C202.127 114.322 202.278 113.942 202.58 113.652C202.884 113.362 203.29 113.217 203.798 113.217C204.273 113.217 204.649 113.342 204.925 113.592C205.201 113.84 205.339 114.171 205.339 114.586C205.339 115.089 205.018 115.688 204.377 116.383L203.008 117.868H205.574V118.398Z" fill="#8794BA"/>
<path d="M92.5323 50.9699C92.498 50.056 93.2112 49.2835 94.1257 49.2901C102.09 49.3476 109.84 51.979 116.206 56.8148C123.012 61.9851 127.815 69.3555 129.797 77.6701C131.778 85.9847 130.815 94.729 127.072 102.413C123.329 110.097 117.037 116.246 109.269 119.811C101.501 123.377 92.7363 124.138 84.4695 121.966C76.2027 119.794 68.9449 114.823 63.9325 107.899C58.9202 100.976 56.4635 92.5284 56.9811 83.9967C57.4653 76.017 60.5232 68.4252 65.6726 62.3489C66.2639 61.6512 67.3147 61.6141 67.9852 62.236C68.6557 62.8579 68.6915 63.9031 68.1034 64.6034C63.4734 70.1159 60.7244 76.9824 60.2867 84.1972C59.8155 91.9642 62.0519 99.6542 66.615 105.957C71.178 112.26 77.7853 116.786 85.3111 118.763C92.8369 120.74 100.815 120.047 107.887 116.801C114.959 113.556 120.687 107.958 124.095 100.963C127.502 93.9675 128.379 86.007 126.575 78.4377C124.772 70.8685 120.399 64.1587 114.203 59.4519C108.447 55.0796 101.449 52.6868 94.2502 52.603C93.3358 52.5924 92.5667 51.8837 92.5323 50.9699Z" fill="#EF2A82"/>
<path d="M91.8778 35.3419C91.8265 34.023 92.8545 32.9067 94.1743 32.9145C104.513 32.9756 114.63 36.0422 123.28 41.7659C132.597 47.93 139.742 56.8643 143.707 67.3078C147.672 77.7512 148.257 89.1763 145.379 99.9701C142.501 110.764 136.306 120.381 127.668 127.465C119.03 134.548 108.386 138.739 97.2374 139.447C86.089 140.155 74.9998 137.344 65.5353 131.41C56.0707 125.476 48.7089 116.72 44.4889 106.376C40.5705 96.7722 39.5448 86.2504 41.5098 76.1004C41.7607 74.8046 43.0567 74.0152 44.34 74.3238C45.6232 74.6325 46.4071 75.9223 46.162 77.2192C44.4277 86.3943 45.3742 95.894 48.9143 104.571C52.756 113.987 59.4579 121.959 68.0741 127.36C76.6903 132.762 86.7854 135.322 96.9345 134.677C107.084 134.033 116.774 130.217 124.638 123.769C132.501 117.32 138.141 108.565 140.761 98.7388C143.381 88.9125 142.848 78.5116 139.239 69.0043C135.629 59.4969 129.124 51.3634 120.643 45.7519C112.828 40.5808 103.697 37.7921 94.3602 37.6957C93.0405 37.682 91.9292 36.6607 91.8778 35.3419Z" fill="#0088F0"/>
<path d="M88.2954 85.7312L88.4686 84.0322H90.2145V84.4324H88.836L88.7331 85.3615C88.9 85.2632 89.0896 85.2141 89.3018 85.2141C89.6122 85.2141 89.8587 85.317 90.0413 85.523C90.2238 85.7273 90.3151 86.0043 90.3151 86.3538C90.3151 86.7048 90.2199 86.9817 90.0296 87.1845C89.8408 87.3858 89.5764 87.4864 89.2362 87.4864C88.9351 87.4864 88.6894 87.403 88.4991 87.236C88.3087 87.0691 88.2003 86.8382 88.1738 86.5433H88.5833C88.6098 86.7383 88.6793 86.8858 88.7916 86.9856C88.9039 87.0839 89.0521 87.1331 89.2362 87.1331C89.4375 87.1331 89.5951 87.0644 89.709 86.9271C89.8244 86.7898 89.8821 86.6003 89.8821 86.3584C89.8821 86.1307 89.8197 85.9481 89.6949 85.8108C89.5717 85.672 89.4071 85.6025 89.2011 85.6025C89.0123 85.6025 88.8641 85.6439 88.7565 85.7266L88.6418 85.8202L88.2954 85.7312ZM90.9867 85.7312L91.1599 84.0322H92.9058V84.4324H91.5273L91.4244 85.3615C91.5913 85.2632 91.7809 85.2141 91.9931 85.2141C92.3035 85.2141 92.55 85.317 92.7326 85.523C92.9151 85.7273 93.0064 86.0043 93.0064 86.3538C93.0064 86.7048 92.9112 86.9817 92.7209 87.1845C92.5321 87.3858 92.2676 87.4864 91.9275 87.4864C91.6264 87.4864 91.3807 87.403 91.1903 87.236C91 87.0691 90.8916 86.8382 90.8651 86.5433H91.2746C91.3011 86.7383 91.3705 86.8858 91.4829 86.9856C91.5952 87.0839 91.7434 87.1331 91.9275 87.1331C92.1288 87.1331 92.2864 87.0644 92.4003 86.9271C92.5157 86.7898 92.5734 86.6003 92.5734 86.3584C92.5734 86.1307 92.511 85.9481 92.3862 85.8108C92.263 85.672 92.0984 85.6025 91.8924 85.6025C91.7036 85.6025 91.5554 85.6439 91.4478 85.7266L91.3331 85.8202L90.9867 85.7312ZM94.4246 86.1689H93.2825V85.8155H94.4246V86.1689ZM96.5027 84.0299V84.3973H96.4232C96.0862 84.4035 95.8178 84.5034 95.6181 84.6969C95.4184 84.8903 95.303 85.1626 95.2718 85.5136C95.4512 85.3077 95.6961 85.2047 96.0066 85.2047C96.303 85.2047 96.5394 85.3092 96.7157 85.5183C96.8936 85.7273 96.9825 85.9973 96.9825 86.328C96.9825 86.6791 96.8865 86.9599 96.6946 87.1705C96.5043 87.3811 96.2484 87.4864 95.927 87.4864C95.601 87.4864 95.3365 87.3616 95.1337 87.112C94.9309 86.8608 94.8294 86.5379 94.8294 86.1431V85.977C94.8294 85.3498 94.9628 84.8708 95.2296 84.5401C95.498 84.2077 95.8966 84.0377 96.4255 84.0299H96.5027ZM95.934 85.5651C95.7858 85.5651 95.6493 85.6096 95.5245 85.6985C95.3997 85.7874 95.3131 85.899 95.2647 86.0331V86.1923C95.2647 86.4731 95.3279 86.6993 95.4543 86.871C95.5807 87.0426 95.7382 87.1284 95.927 87.1284C96.122 87.1284 96.2749 87.0566 96.3857 86.9131C96.4981 86.7695 96.5542 86.5815 96.5542 86.3491C96.5542 86.1151 96.4973 85.9263 96.3834 85.7827C96.271 85.6376 96.1213 85.5651 95.934 85.5651ZM99.3227 86.2953H99.7955V86.6486H99.3227V87.4396H98.8875V86.6486H97.3359V86.3935L98.8617 84.0322H99.3227V86.2953ZM97.8273 86.2953H98.8875V84.6243L98.836 84.7179L97.8273 86.2953Z" fill="#8794BA"/>
<path d="M26.1686 23.1511H24.2652L23.8377 24.3368H23.2199L24.9548 19.7936H25.479L27.2171 24.3368H26.6024L26.1686 23.1511ZM24.4462 22.658H25.9908L25.2169 20.5331L24.4462 22.658ZM27.6009 22.6206C27.6009 22.0943 27.7226 21.6762 27.966 21.3662C28.2093 21.0542 28.5318 20.8982 28.9333 20.8982C29.3452 20.8982 29.6665 21.0438 29.8975 21.335L29.9255 20.9606H30.4529V24.2557C30.4529 24.6925 30.3229 25.0368 30.0628 25.2885C29.8049 25.5402 29.4575 25.6661 29.0206 25.6661C28.7772 25.6661 28.5391 25.6141 28.3061 25.51C28.0731 25.406 27.8952 25.2635 27.7725 25.0826L28.0721 24.7362C28.3196 25.042 28.6223 25.1949 28.9801 25.1949C29.2609 25.1949 29.4793 25.1158 29.6353 24.9577C29.7934 24.7996 29.8725 24.5771 29.8725 24.29V23.9998C29.6416 24.2661 29.3264 24.3992 28.927 24.3992C28.5318 24.3992 28.2114 24.2401 27.966 23.9218C27.7226 23.6035 27.6009 23.1698 27.6009 22.6206ZM28.1813 22.6861C28.1813 23.0668 28.2593 23.3664 28.4153 23.5848C28.5713 23.8011 28.7897 23.9093 29.0706 23.9093C29.4346 23.9093 29.7019 23.7439 29.8725 23.4132V21.8717C29.6957 21.5493 29.4304 21.3881 29.0768 21.3881C28.796 21.3881 28.5765 21.4973 28.4184 21.7157C28.2603 21.9341 28.1813 22.2576 28.1813 22.6861ZM32.7276 24.3992C32.27 24.3992 31.8976 24.2494 31.6105 23.9499C31.3234 23.6482 31.1799 23.2457 31.1799 22.7423V22.6362C31.1799 22.3013 31.2434 22.0028 31.3703 21.7407C31.4992 21.4765 31.6781 21.2705 31.907 21.1228C32.1379 20.9731 32.3875 20.8982 32.6558 20.8982C33.0948 20.8982 33.4359 21.0428 33.6793 21.3319C33.9227 21.6211 34.0444 22.035 34.0444 22.5738V22.8141H31.7572C31.7655 23.1469 31.8622 23.4163 32.0474 23.6222C32.2346 23.8261 32.4717 23.928 32.7588 23.928C32.9627 23.928 33.1353 23.8864 33.2768 23.8032C33.4182 23.72 33.542 23.6098 33.6481 23.4725L34.0007 23.747C33.7178 24.1818 33.2934 24.3992 32.7276 24.3992ZM32.6558 21.3725C32.4228 21.3725 32.2273 21.4578 32.0692 21.6283C31.9111 21.7968 31.8133 22.034 31.7759 22.3398H33.4671V22.2961C33.4505 22.0028 33.3714 21.776 33.23 21.6159C33.0885 21.4536 32.8971 21.3725 32.6558 21.3725ZM36.6811 23.4413C36.6811 23.2852 36.6218 23.1646 36.5032 23.0793C36.3867 22.9919 36.1818 22.917 35.8885 22.8546C35.5973 22.7922 35.3653 22.7173 35.1927 22.63C35.0221 22.5426 34.8952 22.4386 34.812 22.3179C34.7309 22.1973 34.6903 22.0537 34.6903 21.8873C34.6903 21.6107 34.8068 21.3766 35.0398 21.1852C35.2748 20.9939 35.5744 20.8982 35.9384 20.8982C36.3212 20.8982 36.6312 20.997 36.8683 21.1946C37.1075 21.3922 37.2271 21.645 37.2271 21.9529H36.6468C36.6468 21.7948 36.5791 21.6585 36.4439 21.5441C36.3108 21.4297 36.1423 21.3725 35.9384 21.3725C35.7283 21.3725 35.564 21.4182 35.4454 21.5098C35.3268 21.6013 35.2676 21.7209 35.2676 21.8686C35.2676 22.008 35.3227 22.113 35.4329 22.1838C35.5432 22.2545 35.7419 22.3221 36.0289 22.3866C36.3181 22.4511 36.5521 22.528 36.731 22.6175C36.9099 22.7069 37.042 22.8151 37.1273 22.942C37.2147 23.0668 37.2583 23.2197 37.2583 23.4007C37.2583 23.7023 37.1377 23.9447 36.8964 24.1277C36.6551 24.3087 36.342 24.3992 35.9572 24.3992C35.6867 24.3992 35.4475 24.3514 35.2395 24.2557C35.0315 24.16 34.8682 24.0268 34.7496 23.8563C34.6331 23.6836 34.5748 23.4974 34.5748 23.2977H35.1521C35.1625 23.4912 35.2395 23.6451 35.383 23.7595C35.5286 23.8719 35.72 23.928 35.9572 23.928C36.1756 23.928 36.3503 23.8843 36.4814 23.797C36.6145 23.7075 36.6811 23.5889 36.6811 23.4413Z" fill="#8794BA"/>
</svg>
