<svg width="240" height="165" viewBox="0 0 240 165" fill="none" xmlns="http://www.w3.org/2000/svg">
<rect x="0.198242" y="0.64978" width="239.642" height="163.756" rx="11.9821" fill="white"/>
<rect x="24.562" y="139.243" width="0.399405" height="190.915" transform="rotate(-90 24.562 139.243)" fill="#EEEEF7"/>
<rect x="24.5619" y="122.867" width="0.399405" height="190.915" transform="rotate(-90 24.5619 122.867)" fill="#EEEEF7"/>
<rect x="24.5619" y="106.492" width="0.399405" height="190.915" transform="rotate(-90 24.5619 106.492)" fill="#EEEEF7"/>
<rect x="24.5619" y="90.1163" width="0.399405" height="190.915" transform="rotate(-90 24.5619 90.1163)" fill="#EEEEF7"/>
<rect x="24.5619" y="73.7407" width="0.399405" height="190.915" transform="rotate(-90 24.5619 73.7407)" fill="#EEEEF7"/>
<rect x="24.5619" y="57.3651" width="0.399405" height="190.915" transform="rotate(-90 24.5619 57.3651)" fill="#EEEEF7"/>
<rect x="24.5619" y="40.9896" width="0.399405" height="190.915" transform="rotate(-90 24.5619 40.9896)" fill="#EEEEF7"/>
<rect x="24.5619" y="24.614" width="0.399405" height="190.915" transform="rotate(-90 24.5619 24.614)" fill="#EEEEF7"/>
<path d="M69.2959 147.039H68.8606V144.153L67.9877 144.474V144.081L69.228 143.615H69.2959V147.039ZM72.6308 144.521C72.6308 144.691 72.5855 144.842 72.495 144.975C72.4061 145.107 72.2852 145.211 72.1323 145.286C72.3101 145.362 72.4506 145.474 72.5535 145.621C72.6581 145.767 72.7103 145.933 72.7103 146.119C72.7103 146.414 72.6105 146.649 72.4108 146.823C72.2126 146.998 71.9513 147.086 71.6268 147.086C71.2992 147.086 71.0363 146.998 70.8381 146.823C70.6415 146.647 70.5433 146.412 70.5433 146.119C70.5433 145.935 70.5932 145.769 70.693 145.621C70.7944 145.472 70.9341 145.36 71.1119 145.284C70.9606 145.209 70.8412 145.105 70.7539 144.972C70.6665 144.84 70.6228 144.689 70.6228 144.521C70.6228 144.234 70.7149 144.006 70.899 143.837C71.0831 143.669 71.3257 143.585 71.6268 143.585C71.9263 143.585 72.1682 143.669 72.3523 143.837C72.5379 144.006 72.6308 144.234 72.6308 144.521ZM72.2774 146.11C72.2774 145.919 72.2165 145.764 72.0948 145.644C71.9747 145.524 71.8171 145.464 71.6221 145.464C71.4271 145.464 71.2703 145.523 71.1517 145.642C71.0347 145.76 70.9762 145.916 70.9762 146.11C70.9762 146.303 71.0331 146.455 71.147 146.566C71.2625 146.677 71.4224 146.732 71.6268 146.732C71.8296 146.732 71.9888 146.677 72.1042 146.566C72.2197 146.454 72.2774 146.302 72.2774 146.11ZM71.6268 143.94C71.4567 143.94 71.3187 143.993 71.2126 144.099C71.108 144.204 71.0558 144.347 71.0558 144.528C71.0558 144.701 71.1073 144.841 71.2102 144.949C71.3148 145.055 71.4536 145.108 71.6268 145.108C71.8 145.108 71.938 145.055 72.041 144.949C72.1455 144.841 72.1978 144.701 72.1978 144.528C72.1978 144.354 72.144 144.213 72.0363 144.104C71.9287 143.995 71.7922 143.94 71.6268 143.94ZM74.2011 145.768H73.059V145.415H74.2011V145.768ZM76.8128 147.039H74.5802V146.728L75.7597 145.417C75.9344 145.219 76.0546 145.058 76.1201 144.935C76.1872 144.81 76.2207 144.681 76.2207 144.549C76.2207 144.371 76.1669 144.225 76.0592 144.111C75.9516 143.997 75.8081 143.94 75.6286 143.94C75.4133 143.94 75.2456 144.002 75.1255 144.125C75.0069 144.247 74.9476 144.417 74.9476 144.635H74.5147C74.5147 144.322 74.6153 144.068 74.8166 143.875C75.0194 143.681 75.2901 143.585 75.6286 143.585C75.9453 143.585 76.1958 143.668 76.3799 143.835C76.564 144 76.656 144.221 76.656 144.497C76.656 144.833 76.4423 145.232 76.0148 145.695L75.1021 146.685H76.8128V147.039ZM79.0992 145.894H79.572V146.248H79.0992V147.039H78.6639V146.248H77.1124V145.993L78.6382 143.631H79.0992V145.894ZM77.6038 145.894H78.6639V144.223L78.6125 144.317L77.6038 145.894Z" fill="#8794BA"/>
<path d="M119.227 145.124H119.552C119.757 145.121 119.917 145.067 120.034 144.963C120.151 144.858 120.21 144.717 120.21 144.539C120.21 144.14 120.011 143.94 119.613 143.94C119.426 143.94 119.276 143.994 119.164 144.102C119.053 144.208 118.998 144.349 118.998 144.525H118.565C118.565 144.255 118.663 144.032 118.86 143.854C119.058 143.674 119.309 143.585 119.613 143.585C119.935 143.585 120.186 143.67 120.369 143.84C120.552 144.01 120.643 144.246 120.643 144.549C120.643 144.697 120.594 144.84 120.498 144.979C120.403 145.118 120.272 145.222 120.107 145.291C120.294 145.35 120.438 145.448 120.54 145.585C120.643 145.723 120.694 145.89 120.694 146.089C120.694 146.394 120.594 146.637 120.395 146.816C120.195 146.996 119.935 147.086 119.615 147.086C119.296 147.086 119.035 146.999 118.834 146.826C118.634 146.653 118.534 146.424 118.534 146.14H118.97C118.97 146.32 119.028 146.463 119.145 146.571C119.262 146.678 119.419 146.732 119.615 146.732C119.825 146.732 119.984 146.678 120.095 146.568C120.206 146.459 120.261 146.302 120.261 146.098C120.261 145.9 120.201 145.748 120.079 145.642C119.957 145.536 119.782 145.481 119.552 145.478H119.227V145.124ZM121.488 145.33L121.661 143.631H123.407V144.032H122.028L121.925 144.961C122.092 144.862 122.282 144.813 122.494 144.813C122.804 144.813 123.051 144.916 123.233 145.122C123.416 145.326 123.507 145.603 123.507 145.953C123.507 146.304 123.412 146.581 123.222 146.784C123.033 146.985 122.769 147.086 122.428 147.086C122.127 147.086 121.882 147.002 121.691 146.835C121.501 146.668 121.392 146.437 121.366 146.142H121.776C121.802 146.337 121.871 146.485 121.984 146.585C122.096 146.683 122.244 146.732 122.428 146.732C122.63 146.732 122.787 146.664 122.901 146.526C123.017 146.389 123.074 146.199 123.074 145.958C123.074 145.73 123.012 145.547 122.887 145.41C122.764 145.271 122.599 145.202 122.393 145.202C122.205 145.202 122.056 145.243 121.949 145.326L121.834 145.419L121.488 145.33ZM124.926 145.768H123.783V145.415H124.926V145.768ZM127.132 145.894H127.605V146.248H127.132V147.039H126.697V146.248H125.145V145.993L126.671 143.631H127.132V145.894ZM125.637 145.894H126.697V144.223L126.646 144.317L125.637 145.894ZM129.824 145.894H130.296V146.248H129.824V147.039H129.388V146.248H127.837V145.993L129.363 143.631H129.824V145.894ZM128.328 145.894H129.388V144.223L129.337 144.317L128.328 145.894Z" fill="#8794BA"/>
<path d="M171.014 143.629V143.996H170.935C170.598 144.003 170.329 144.103 170.13 144.296C169.93 144.489 169.815 144.762 169.783 145.113C169.963 144.907 170.208 144.804 170.518 144.804C170.815 144.804 171.051 144.908 171.227 145.117C171.405 145.326 171.494 145.596 171.494 145.927C171.494 146.278 171.398 146.559 171.206 146.77C171.016 146.98 170.76 147.086 170.439 147.086C170.113 147.086 169.848 146.961 169.645 146.711C169.442 146.46 169.341 146.137 169.341 145.742V145.576C169.341 144.949 169.474 144.47 169.741 144.139C170.01 143.807 170.408 143.637 170.937 143.629H171.014ZM170.446 145.164C170.297 145.164 170.161 145.209 170.036 145.298C169.911 145.387 169.825 145.498 169.776 145.632V145.791C169.776 146.072 169.839 146.298 169.966 146.47C170.092 146.642 170.25 146.728 170.439 146.728C170.634 146.728 170.787 146.656 170.897 146.512C171.01 146.369 171.066 146.181 171.066 145.948C171.066 145.714 171.009 145.525 170.895 145.382C170.783 145.237 170.633 145.164 170.446 145.164ZM172.205 145.33L172.379 143.631H174.124V144.032H172.746L172.643 144.961C172.81 144.862 173 144.813 173.212 144.813C173.522 144.813 173.769 144.916 173.951 145.122C174.134 145.326 174.225 145.603 174.225 145.953C174.225 146.304 174.13 146.581 173.94 146.784C173.751 146.985 173.486 147.086 173.146 147.086C172.845 147.086 172.599 147.002 172.409 146.835C172.219 146.668 172.11 146.437 172.084 146.142H172.493C172.52 146.337 172.589 146.485 172.702 146.585C172.814 146.683 172.962 146.732 173.146 146.732C173.348 146.732 173.505 146.664 173.619 146.526C173.734 146.389 173.792 146.199 173.792 145.958C173.792 145.73 173.73 145.547 173.605 145.41C173.482 145.271 173.317 145.202 173.111 145.202C172.922 145.202 172.774 145.243 172.667 145.326L172.552 145.419L172.205 145.33ZM175.983 145.211H176.933V145.621H175.983V146.697H175.547V145.621H174.597V145.211H175.547V144.216H175.983V145.211Z" fill="#8794BA"/>
<g style="mix-blend-mode:multiply" opacity="0.45">
<circle cx="62.1056" cy="60.161" r="19.9702" fill="#0088F0"/>
</g>
<g style="mix-blend-mode:multiply">
<circle cx="75.8853" cy="79.9315" r="13.38" fill="#EF2A82"/>
</g>
<g style="mix-blend-mode:multiply">
<circle cx="168.547" cy="76.7362" r="29.3562" fill="#EF2A82"/>
</g>
<g style="mix-blend-mode:multiply" opacity="0.6">
<circle cx="139.79" cy="97.9046" r="15.377" fill="#0088F0"/>
</g>
<g style="mix-blend-mode:multiply">
<circle cx="119.82" cy="42.3875" r="6.98957" fill="#0088F0"/>
</g>
<g style="mix-blend-mode:multiply">
<circle cx="57.1134" cy="122.668" r="2.99553" fill="#EF2A82"/>
</g>
<g style="mix-blend-mode:multiply">
<circle cx="190.514" cy="105.893" r="13.38" fill="#0088F0"/>
</g>
</svg>
