<svg width="240" height="164" viewBox="0 0 240 164" fill="none" xmlns="http://www.w3.org/2000/svg">
<rect x="0.351685" y="0.162415" width="239.642" height="163.756" rx="11.9821" fill="white"/>
<path d="M44.6918 56.1099L88.2209 30.9783L131.75 56.1099V106.373L88.2209 131.505L44.6918 106.373V56.1099Z" stroke="#EEEEF7" stroke-width="0.798808"/>
<path d="M59.911 64.8968L88.2208 48.5521L116.531 64.8968V97.5861L88.2208 113.931L59.911 97.5861V64.8968Z" stroke="#EEEEF7" stroke-width="0.798808"/>
<path d="M65.2204 68.0673L88.366 49.0062L121.004 61.8282L123.341 100.973L88.3589 121.768L62.6897 94.9322L65.2204 68.0673Z" stroke="#0088F0" stroke-width="1.59762"/>
<path d="M54.8791 62.2267L87.9659 43.952L106.29 71.2428L118.353 98.8152H88.3303L67.3678 92.9591L54.8791 62.2267Z" stroke="#EF2A82" stroke-width="1.59762"/>
<path d="M78.5893 75.6806L88.2208 70.1199L97.8524 75.6806V86.8022L88.2208 92.3629L78.5893 86.8022V75.6806Z" stroke="#EEEEF7" stroke-width="0.798808"/>
<path d="M184.281 54.2033H185.35C186.021 54.1931 186.549 54.0162 186.934 53.6728C187.318 53.3293 187.51 52.8654 187.51 52.281C187.51 50.9687 186.857 50.3125 185.549 50.3125C184.934 50.3125 184.442 50.4894 184.073 50.8431C183.709 51.1917 183.527 51.6556 183.527 52.2349H182.105C182.105 51.348 182.428 50.6124 183.073 50.028C183.725 49.4385 184.55 49.1437 185.549 49.1437C186.605 49.1437 187.433 49.4231 188.033 49.9819C188.633 50.5406 188.933 51.3172 188.933 52.3117C188.933 52.7987 188.774 53.2704 188.456 53.7266C188.143 54.1828 187.715 54.5237 187.172 54.7493C187.787 54.9441 188.261 55.267 188.594 55.7182C188.933 56.1693 189.102 56.7203 189.102 57.3714C189.102 58.3761 188.774 59.1733 188.118 59.7628C187.462 60.3523 186.608 60.6471 185.557 60.6471C184.506 60.6471 183.65 60.3626 182.989 59.7935C182.333 59.2245 182.005 58.4735 182.005 57.5406H183.435C183.435 58.1301 183.627 58.6017 184.012 58.9554C184.396 59.3091 184.911 59.486 185.557 59.486C186.244 59.486 186.77 59.3066 187.134 58.9477C187.497 58.5889 187.679 58.0737 187.679 57.4021C187.679 56.7511 187.48 56.2513 187.08 55.9027C186.68 55.5541 186.103 55.3747 185.35 55.3644H184.281V54.2033ZM197.061 56.7332H198.614V57.8943H197.061V60.4933H195.63V57.8943H190.532V57.0561L195.546 49.2975H197.061V56.7332ZM192.147 56.7332H195.63V51.2429L195.461 51.5505L192.147 56.7332ZM199.775 51.4505C199.775 50.779 199.988 50.2254 200.413 49.7896C200.844 49.3539 201.395 49.136 202.066 49.136C202.748 49.136 203.299 49.3564 203.72 49.7973C204.145 50.233 204.358 50.7995 204.358 51.4967V52.0426C204.358 52.7193 204.142 53.2729 203.712 53.7035C203.286 54.129 202.743 54.3418 202.082 54.3418C201.415 54.3418 200.864 54.129 200.429 53.7035C199.993 53.2729 199.775 52.7013 199.775 51.9888V51.4505ZM200.836 52.0426C200.836 52.4425 200.949 52.7731 201.174 53.0346C201.4 53.2909 201.702 53.419 202.082 53.419C202.446 53.419 202.738 53.2934 202.958 53.0422C203.184 52.7911 203.297 52.4476 203.297 52.0119V51.4505C203.297 51.0507 203.186 50.72 202.966 50.4586C202.746 50.1972 202.446 50.0664 202.066 50.0664C201.687 50.0664 201.387 50.1972 201.167 50.4586C200.946 50.72 200.836 51.0609 200.836 51.4813V52.0426ZM205.227 57.7482C205.227 57.0766 205.439 56.5255 205.865 56.0949C206.296 55.6592 206.847 55.4413 207.518 55.4413C208.19 55.4413 208.741 55.6566 209.171 56.0873C209.602 56.5179 209.817 57.0894 209.817 57.802V58.3479C209.817 59.0195 209.602 59.5731 209.171 60.0089C208.746 60.4395 208.2 60.6548 207.534 60.6548C206.867 60.6548 206.316 60.442 205.88 60.0165C205.445 59.5859 205.227 59.0144 205.227 58.3018V57.7482ZM206.288 58.3479C206.288 58.7529 206.401 59.0861 206.626 59.3476C206.852 59.6039 207.154 59.732 207.534 59.732C207.903 59.732 208.197 59.6064 208.418 59.3553C208.638 59.0989 208.748 58.7529 208.748 58.3172V57.7482C208.748 57.3432 208.636 57.0125 208.41 56.7562C208.19 56.4999 207.892 56.3718 207.518 56.3718C207.154 56.3718 206.857 56.4999 206.626 56.7562C206.401 57.0074 206.288 57.3483 206.288 57.7789V58.3479ZM202.405 59.6475L201.597 59.1399L207.064 50.3894L207.872 50.8969L202.405 59.6475Z" fill="#EF2A82"/>
<path d="M181.601 71.331C181.601 70.9589 181.674 70.6243 181.819 70.3271C181.966 70.0299 182.17 69.8005 182.43 69.639C182.692 69.4776 182.99 69.3968 183.325 69.3968C183.842 69.3968 184.26 69.5758 184.578 69.9339C184.899 70.292 185.059 70.7682 185.059 71.3626V71.4083C185.059 71.778 184.988 72.1103 184.845 72.4052C184.704 72.6977 184.502 72.9259 184.238 73.0897C183.975 73.2536 183.674 73.3355 183.332 73.3355C182.817 73.3355 182.399 73.1564 182.079 72.7984C181.76 72.4403 181.601 71.9664 181.601 71.3767V71.331ZM182.254 71.4083C182.254 71.8295 182.351 72.1677 182.546 72.4228C182.742 72.6779 183.004 72.8054 183.332 72.8054C183.662 72.8054 183.924 72.6767 184.118 72.4193C184.312 72.1595 184.41 71.7967 184.41 71.331C184.41 70.9145 184.31 70.5775 184.111 70.32C183.915 70.0603 183.652 69.9304 183.325 69.9304C183.004 69.9304 182.746 70.0579 182.549 70.313C182.352 70.5681 182.254 70.9332 182.254 71.4083ZM189.082 71.4083C189.082 71.9863 188.95 72.452 188.685 72.8054C188.421 73.1588 188.063 73.3355 187.611 73.3355C187.15 73.3355 186.787 73.1892 186.523 72.8967V74.7256H185.873V69.467H186.467L186.498 69.8883C186.763 69.5606 187.13 69.3968 187.6 69.3968C188.057 69.3968 188.417 69.5688 188.682 69.9128C188.948 70.2569 189.082 70.7354 189.082 71.3486V71.4083ZM188.432 71.3345C188.432 70.9063 188.341 70.5681 188.159 70.32C187.976 70.072 187.726 69.9479 187.407 69.9479C187.014 69.9479 186.719 70.1223 186.523 70.471V72.2859C186.717 72.6322 187.014 72.8054 187.414 72.8054C187.726 72.8054 187.973 72.6825 188.155 72.4368C188.34 72.1887 188.432 71.8213 188.432 71.3345ZM190.791 68.5473V69.467H191.501V69.969H190.791V72.3245C190.791 72.4766 190.823 72.5913 190.886 72.6685C190.949 72.7434 191.057 72.7808 191.209 72.7808C191.284 72.7808 191.387 72.7668 191.518 72.7387V73.2653C191.347 73.3121 191.181 73.3355 191.02 73.3355C190.729 73.3355 190.511 73.2477 190.363 73.0722C190.216 72.8967 190.142 72.6474 190.142 72.3245V69.969H189.45V69.467H190.142V68.5473H190.791ZM192.968 73.2653H192.318V69.467H192.968V73.2653ZM192.266 68.4595C192.266 68.3542 192.297 68.2653 192.361 68.1928C192.426 68.1202 192.522 68.0839 192.648 68.0839C192.775 68.0839 192.871 68.1202 192.936 68.1928C193.002 68.2653 193.035 68.3542 193.035 68.4595C193.035 68.5649 193.002 68.6526 192.936 68.7228C192.871 68.793 192.775 68.8281 192.648 68.8281C192.522 68.8281 192.426 68.793 192.361 68.7228C192.297 68.6526 192.266 68.5649 192.266 68.4595ZM193.838 71.331C193.838 70.9589 193.911 70.6243 194.056 70.3271C194.204 70.0299 194.407 69.8005 194.667 69.639C194.929 69.4776 195.227 69.3968 195.562 69.3968C196.079 69.3968 196.497 69.5758 196.815 69.9339C197.136 70.292 197.296 70.7682 197.296 71.3626V71.4083C197.296 71.778 197.225 72.1103 197.082 72.4052C196.942 72.6977 196.739 72.9259 196.475 73.0897C196.213 73.2536 195.911 73.3355 195.569 73.3355C195.054 73.3355 194.636 73.1564 194.316 72.7984C193.998 72.4403 193.838 71.9664 193.838 71.3767V71.331ZM194.491 71.4083C194.491 71.8295 194.589 72.1677 194.783 72.4228C194.979 72.6779 195.241 72.8054 195.569 72.8054C195.899 72.8054 196.161 72.6767 196.355 72.4193C196.55 72.1595 196.647 71.7967 196.647 71.331C196.647 70.9145 196.547 70.5775 196.348 70.32C196.152 70.0603 195.89 69.9304 195.562 69.9304C195.241 69.9304 194.983 70.0579 194.786 70.313C194.59 70.5681 194.491 70.9332 194.491 71.4083ZM198.725 69.467L198.746 69.9444C199.036 69.5794 199.415 69.3968 199.883 69.3968C200.686 69.3968 201.091 69.8497 201.098 70.7553V73.2653H200.449V70.7518C200.446 70.478 200.383 70.2756 200.259 70.1445C200.137 70.0135 199.947 69.9479 199.687 69.9479C199.476 69.9479 199.291 70.0041 199.132 70.1164C198.973 70.2288 198.849 70.3762 198.76 70.5588V73.2653H198.111V69.467H198.725ZM205.928 73.2653H205.275V68.937L203.966 69.4179V68.8281L205.826 68.1296H205.928V73.2653Z" fill="#8794BA"/>
<path d="M189.548 105.227H182.212V104.204L186.088 99.8978C186.662 99.2468 187.057 98.7188 187.272 98.3138C187.492 97.9037 187.603 97.4808 187.603 97.045C187.603 96.4606 187.426 95.9813 187.072 95.6071C186.718 95.2329 186.247 95.0458 185.657 95.0458C184.95 95.0458 184.399 95.2483 184.004 95.6532C183.614 96.0531 183.42 96.6119 183.42 97.3295H181.997C181.997 96.2992 182.328 95.4661 182.989 94.8305C183.655 94.1948 184.545 93.877 185.657 93.877C186.698 93.877 187.521 94.1512 188.125 94.6998C188.73 95.2431 189.033 95.9685 189.033 96.8759C189.033 97.978 188.33 99.2903 186.926 100.813L183.927 104.065H189.548V105.227ZM196.507 100.305C196.21 100.659 195.853 100.944 195.438 101.159C195.028 101.374 194.577 101.482 194.085 101.482C193.439 101.482 192.875 101.323 192.393 101.005C191.916 100.687 191.547 100.241 191.286 99.6671C191.024 99.0878 190.894 98.4496 190.894 97.7524C190.894 97.004 191.035 96.3299 191.317 95.7301C191.604 95.1304 192.009 94.6716 192.531 94.3537C193.054 94.0359 193.664 93.877 194.362 93.877C195.469 93.877 196.34 94.2922 196.976 95.1227C197.617 95.948 197.937 97.0758 197.937 98.506V98.9212C197.937 101.1 197.507 102.692 196.645 103.696C195.784 104.696 194.485 105.209 192.747 105.234H192.47V104.035H192.77C193.944 104.014 194.846 103.709 195.477 103.12C196.107 102.525 196.451 101.587 196.507 100.305ZM194.315 100.305C194.792 100.305 195.23 100.159 195.63 99.867C196.035 99.5748 196.33 99.2134 196.515 98.7828V98.2138C196.515 97.2808 196.312 96.5221 195.907 95.9377C195.502 95.3534 194.99 95.0612 194.369 95.0612C193.744 95.0612 193.241 95.3021 192.862 95.784C192.483 96.2607 192.293 96.8912 192.293 97.6756C192.293 98.4394 192.475 99.0699 192.839 99.5672C193.208 100.059 193.7 100.305 194.315 100.305ZM199.775 96.1838C199.775 95.5123 199.988 94.9586 200.413 94.5229C200.844 94.0872 201.395 93.8693 202.066 93.8693C202.748 93.8693 203.299 94.0897 203.72 94.5306C204.145 94.9663 204.358 95.5328 204.358 96.2299V96.7759C204.358 97.4526 204.142 98.0062 203.712 98.4368C203.286 98.8623 202.743 99.075 202.082 99.075C201.415 99.075 200.864 98.8623 200.429 98.4368C199.993 98.0062 199.775 97.4346 199.775 96.7221V96.1838ZM200.836 96.7759C200.836 97.1757 200.949 97.5064 201.174 97.7678C201.4 98.0241 201.702 98.1523 202.082 98.1523C202.446 98.1523 202.738 98.0267 202.958 97.7755C203.184 97.5243 203.297 97.1809 203.297 96.7451V96.1838C203.297 95.784 203.186 95.4533 202.966 95.1919C202.746 94.9304 202.446 94.7997 202.066 94.7997C201.687 94.7997 201.387 94.9304 201.167 95.1919C200.946 95.4533 200.836 95.7942 200.836 96.2146V96.7759ZM205.227 102.481C205.227 101.81 205.439 101.259 205.865 100.828C206.296 100.392 206.847 100.175 207.518 100.175C208.19 100.175 208.741 100.39 209.171 100.821C209.602 101.251 209.817 101.823 209.817 102.535V103.081C209.817 103.753 209.602 104.306 209.171 104.742C208.746 105.173 208.2 105.388 207.534 105.388C206.867 105.388 206.316 105.175 205.88 104.75C205.445 104.319 205.227 103.748 205.227 103.035V102.481ZM206.288 103.081C206.288 103.486 206.401 103.819 206.626 104.081C206.852 104.337 207.154 104.465 207.534 104.465C207.903 104.465 208.197 104.34 208.418 104.089C208.638 103.832 208.748 103.486 208.748 103.05V102.481C208.748 102.076 208.636 101.746 208.41 101.49C208.19 101.233 207.892 101.105 207.518 101.105C207.154 101.105 206.857 101.233 206.626 101.49C206.401 101.741 206.288 102.082 206.288 102.512V103.081ZM202.405 104.381L201.597 103.873L207.064 95.1227L207.872 95.6302L202.405 104.381Z" fill="#0088F0"/>
<path d="M181.601 116.064C181.601 115.692 181.674 115.358 181.819 115.06C181.966 114.763 182.17 114.534 182.43 114.372C182.692 114.211 182.99 114.13 183.325 114.13C183.842 114.13 184.26 114.309 184.578 114.667C184.899 115.025 185.059 115.501 185.059 116.096V116.142C185.059 116.511 184.988 116.844 184.845 117.138C184.704 117.431 184.502 117.659 184.238 117.823C183.975 117.987 183.674 118.069 183.332 118.069C182.817 118.069 182.399 117.89 182.079 117.532C181.76 117.174 181.601 116.7 181.601 116.11V116.064ZM182.254 116.142C182.254 116.563 182.351 116.901 182.546 117.156C182.742 117.411 183.004 117.539 183.332 117.539C183.662 117.539 183.924 117.41 184.118 117.153C184.312 116.893 184.41 116.53 184.41 116.064C184.41 115.648 184.31 115.311 184.111 115.053C183.915 114.794 183.652 114.664 183.325 114.664C183.004 114.664 182.746 114.791 182.549 115.046C182.352 115.301 182.254 115.666 182.254 116.142ZM189.082 116.142C189.082 116.72 188.95 117.185 188.685 117.539C188.421 117.892 188.063 118.069 187.611 118.069C187.15 118.069 186.787 117.922 186.523 117.63V119.459H185.873V114.2H186.467L186.498 114.622C186.763 114.294 187.13 114.13 187.6 114.13C188.057 114.13 188.417 114.302 188.682 114.646C188.948 114.99 189.082 115.469 189.082 116.082V116.142ZM188.432 116.068C188.432 115.64 188.341 115.301 188.159 115.053C187.976 114.805 187.726 114.681 187.407 114.681C187.014 114.681 186.719 114.856 186.523 115.204V117.019C186.717 117.365 187.014 117.539 187.414 117.539C187.726 117.539 187.973 117.416 188.155 117.17C188.34 116.922 188.432 116.555 188.432 116.068ZM190.791 113.281V114.2H191.501V114.702H190.791V117.058C190.791 117.21 190.823 117.325 190.886 117.402C190.949 117.477 191.057 117.514 191.209 117.514C191.284 117.514 191.387 117.5 191.518 117.472V117.999C191.347 118.045 191.181 118.069 191.02 118.069C190.729 118.069 190.511 117.981 190.363 117.805C190.216 117.63 190.142 117.381 190.142 117.058V114.702H189.45V114.2H190.142V113.281H190.791ZM192.968 117.999H192.318V114.2H192.968V117.999ZM192.266 113.193C192.266 113.088 192.297 112.999 192.361 112.926C192.426 112.853 192.522 112.817 192.648 112.817C192.775 112.817 192.871 112.853 192.936 112.926C193.002 112.999 193.035 113.088 193.035 113.193C193.035 113.298 193.002 113.386 192.936 113.456C192.871 113.526 192.775 113.561 192.648 113.561C192.522 113.561 192.426 113.526 192.361 113.456C192.297 113.386 192.266 113.298 192.266 113.193ZM193.838 116.064C193.838 115.692 193.911 115.358 194.056 115.06C194.204 114.763 194.407 114.534 194.667 114.372C194.929 114.211 195.227 114.13 195.562 114.13C196.079 114.13 196.497 114.309 196.815 114.667C197.136 115.025 197.296 115.501 197.296 116.096V116.142C197.296 116.511 197.225 116.844 197.082 117.138C196.942 117.431 196.739 117.659 196.475 117.823C196.213 117.987 195.911 118.069 195.569 118.069C195.054 118.069 194.636 117.89 194.316 117.532C193.998 117.174 193.838 116.7 193.838 116.11V116.064ZM194.491 116.142C194.491 116.563 194.589 116.901 194.783 117.156C194.979 117.411 195.241 117.539 195.569 117.539C195.899 117.539 196.161 117.41 196.355 117.153C196.55 116.893 196.647 116.53 196.647 116.064C196.647 115.648 196.547 115.311 196.348 115.053C196.152 114.794 195.89 114.664 195.562 114.664C195.241 114.664 194.983 114.791 194.786 115.046C194.59 115.301 194.491 115.666 194.491 116.142ZM198.725 114.2L198.746 114.678C199.036 114.313 199.415 114.13 199.883 114.13C200.686 114.13 201.091 114.583 201.098 115.489V117.999H200.449V115.485C200.446 115.211 200.383 115.009 200.259 114.878C200.137 114.747 199.947 114.681 199.687 114.681C199.476 114.681 199.291 114.737 199.132 114.85C198.973 114.962 198.849 115.109 198.76 115.292V117.999H198.111V114.2H198.725ZM207.143 117.999H203.794V117.532L205.563 115.566C205.825 115.269 206.005 115.028 206.104 114.843C206.204 114.655 206.255 114.462 206.255 114.263C206.255 113.997 206.174 113.778 206.012 113.607C205.851 113.436 205.636 113.351 205.367 113.351C205.044 113.351 204.792 113.443 204.612 113.628C204.434 113.811 204.345 114.066 204.345 114.393H203.696C203.696 113.923 203.847 113.543 204.148 113.252C204.453 112.962 204.859 112.817 205.367 112.817C205.842 112.817 206.217 112.942 206.493 113.193C206.77 113.441 206.908 113.772 206.908 114.186C206.908 114.689 206.587 115.289 205.946 115.984L204.577 117.468H207.143V117.999Z" fill="#8794BA"/>
<path d="M84.0817 25.532H83.6464V22.6465L82.7735 22.9671V22.574L84.0139 22.1082H84.0817V25.532ZM87.4166 23.0139C87.4166 23.184 87.3713 23.3353 87.2809 23.4679C87.1919 23.6006 87.071 23.7043 86.9181 23.7792C87.096 23.8556 87.2364 23.9672 87.3394 24.1138C87.4439 24.2605 87.4962 24.4267 87.4962 24.6123C87.4962 24.9072 87.3963 25.142 87.1966 25.3167C86.9985 25.4915 86.7371 25.5788 86.4126 25.5788C86.085 25.5788 85.8221 25.4915 85.624 25.3167C85.4274 25.1404 85.3291 24.9056 85.3291 24.6123C85.3291 24.4282 85.379 24.2621 85.4789 24.1138C85.5803 23.9656 85.7199 23.8533 85.8978 23.7769C85.7464 23.702 85.6271 23.5982 85.5397 23.4656C85.4523 23.333 85.4086 23.1824 85.4086 23.0139C85.4086 22.7269 85.5007 22.4991 85.6848 22.3306C85.8689 22.1621 86.1115 22.0778 86.4126 22.0778C86.7122 22.0778 86.954 22.1621 87.1381 22.3306C87.3238 22.4991 87.4166 22.7269 87.4166 23.0139ZM87.0632 24.603C87.0632 24.4126 87.0024 24.2574 86.8807 24.1373C86.7605 24.0171 86.603 23.9571 86.4079 23.9571C86.2129 23.9571 86.0561 24.0163 85.9375 24.1349C85.8205 24.2535 85.762 24.4095 85.762 24.603C85.762 24.7964 85.819 24.9485 85.9329 25.0593C86.0483 25.1701 86.2082 25.2255 86.4126 25.2255C86.6154 25.2255 86.7746 25.1701 86.89 25.0593C87.0055 24.947 87.0632 24.7949 87.0632 24.603ZM86.4126 22.4335C86.2426 22.4335 86.1045 22.4866 85.9984 22.5927C85.8939 22.6972 85.8416 22.84 85.8416 23.0209C85.8416 23.1941 85.8931 23.3345 85.9961 23.4422C86.1006 23.5483 86.2394 23.6013 86.4126 23.6013C86.5858 23.6013 86.7239 23.5483 86.8268 23.4422C86.9314 23.3345 86.9836 23.1941 86.9836 23.0209C86.9836 22.8478 86.9298 22.7066 86.8222 22.5974C86.7145 22.4881 86.578 22.4335 86.4126 22.4335ZM88.9869 24.2613H87.8449V23.9079H88.9869V24.2613ZM91.5986 25.532H89.366V25.2208L90.5455 23.9102C90.7202 23.7121 90.8404 23.5514 90.9059 23.4282C90.973 23.3033 91.0065 23.1746 91.0065 23.042C91.0065 22.8642 90.9527 22.7183 90.8451 22.6044C90.7374 22.4905 90.5939 22.4335 90.4145 22.4335C90.1992 22.4335 90.0314 22.4952 89.9113 22.6184C89.7927 22.7401 89.7334 22.9102 89.7334 23.1286H89.3005C89.3005 22.815 89.4011 22.5615 89.6024 22.368C89.8052 22.1746 90.0759 22.0778 90.4145 22.0778C90.7312 22.0778 90.9816 22.1613 91.1657 22.3282C91.3498 22.4936 91.4418 22.7144 91.4418 22.9905C91.4418 23.326 91.2281 23.7254 90.8006 24.1887L89.8879 25.1787H91.5986V25.532ZM93.8851 24.3877H94.3578V24.741H93.8851V25.532H93.4498V24.741H91.8982V24.4859L93.424 22.1246H93.8851V24.3877ZM92.3896 24.3877H93.4498V22.7167L93.3983 22.8103L92.3896 24.3877Z" fill="#8794BA"/>
<path d="M141.207 56.6855H138.975V56.3743L140.154 55.0637C140.329 54.8656 140.449 54.7049 140.515 54.5817C140.582 54.4568 140.615 54.3281 140.615 54.1955C140.615 54.0177 140.561 53.8718 140.454 53.7579C140.346 53.644 140.203 53.587 140.023 53.587C139.808 53.587 139.64 53.6487 139.52 53.7719C139.401 53.8936 139.342 54.0637 139.342 54.2821H138.909C138.909 53.9685 139.01 53.715 139.211 53.5215C139.414 53.3281 139.685 53.2313 140.023 53.2313C140.34 53.2313 140.59 53.3148 140.774 53.4817C140.959 53.6471 141.051 53.8679 141.051 54.144C141.051 54.4795 140.837 54.8789 140.409 55.3422L139.497 56.3322H141.207V56.6855ZM141.865 54.9772L142.038 53.2781H143.784V53.6783H142.406L142.303 54.6074C142.47 54.5091 142.659 54.46 142.871 54.46C143.182 54.46 143.428 54.5629 143.611 54.7689C143.793 54.9733 143.885 55.2502 143.885 55.5997C143.885 55.9507 143.789 56.2276 143.599 56.4305C143.41 56.6317 143.146 56.7324 142.806 56.7324C142.505 56.7324 142.259 56.6489 142.069 56.4819C141.878 56.315 141.77 56.0841 141.743 55.7892H142.153C142.179 55.9842 142.249 56.1317 142.361 56.2315C142.473 56.3298 142.622 56.379 142.806 56.379C143.007 56.379 143.165 56.3103 143.278 56.173C143.394 56.0357 143.452 55.8462 143.452 55.6043C143.452 55.3766 143.389 55.194 143.264 55.0567C143.141 54.9179 142.977 54.8484 142.771 54.8484C142.582 54.8484 142.434 54.8898 142.326 54.9725L142.211 55.0661L141.865 54.9772ZM145.303 55.4148H144.161V55.0614H145.303V55.4148ZM146.311 54.7712H146.637C146.841 54.7681 147.002 54.7143 147.119 54.6097C147.236 54.5052 147.294 54.364 147.294 54.1862C147.294 53.7867 147.095 53.587 146.698 53.587C146.51 53.587 146.361 53.6409 146.248 53.7485C146.138 53.8546 146.082 53.9958 146.082 54.1721H145.649C145.649 53.9022 145.747 53.6783 145.944 53.5005C146.142 53.321 146.393 53.2313 146.698 53.2313C147.019 53.2313 147.271 53.3164 147.454 53.4864C147.636 53.6565 147.727 53.8928 147.727 54.1955C147.727 54.3437 147.679 54.4873 147.582 54.6261C147.487 54.765 147.357 54.8687 147.191 54.9374C147.379 54.9967 147.523 55.095 147.624 55.2322C147.727 55.3695 147.779 55.5373 147.779 55.7354C147.779 56.0412 147.679 56.2838 147.479 56.4632C147.28 56.6426 147.02 56.7324 146.7 56.7324C146.38 56.7324 146.12 56.6458 145.918 56.4726C145.719 56.2994 145.619 56.0708 145.619 55.7869H146.054C146.054 55.9663 146.113 56.1098 146.23 56.2175C146.347 56.3251 146.503 56.379 146.7 56.379C146.909 56.379 147.069 56.3244 147.18 56.2152C147.29 56.1059 147.346 55.9491 147.346 55.7448C147.346 55.5466 147.285 55.3945 147.163 55.2884C147.042 55.1823 146.866 55.1277 146.637 55.1246H146.311V54.7712ZM150.201 55.5412H150.674V55.8945H150.201V56.6855H149.766V55.8945H148.214V55.6395L149.74 53.2781H150.201V55.5412ZM148.706 55.5412H149.766V53.8702L149.714 53.9638L148.706 55.5412Z" fill="#8794BA"/>
<path d="M139.604 107.093H139.93C140.134 107.09 140.295 107.036 140.412 106.932C140.529 106.827 140.587 106.686 140.587 106.508C140.587 106.109 140.388 105.909 139.99 105.909C139.803 105.909 139.653 105.963 139.541 106.07C139.43 106.177 139.375 106.318 139.375 106.494H138.942C138.942 106.224 139.04 106 139.237 105.822C139.435 105.643 139.686 105.553 139.99 105.553C140.312 105.553 140.564 105.638 140.746 105.808C140.929 105.978 141.02 106.215 141.02 106.517C141.02 106.666 140.972 106.809 140.875 106.948C140.78 107.087 140.65 107.191 140.484 107.259C140.671 107.319 140.816 107.417 140.917 107.554C141.02 107.691 141.072 107.859 141.072 108.057C141.072 108.363 140.972 108.606 140.772 108.785C140.572 108.965 140.313 109.054 139.993 109.054C139.673 109.054 139.412 108.968 139.211 108.794C139.011 108.621 138.912 108.393 138.912 108.109H139.347C139.347 108.288 139.405 108.432 139.522 108.539C139.639 108.647 139.796 108.701 139.993 108.701C140.202 108.701 140.362 108.646 140.473 108.537C140.583 108.428 140.639 108.271 140.639 108.067C140.639 107.869 140.578 107.716 140.456 107.61C140.334 107.504 140.159 107.45 139.93 107.446H139.604V107.093ZM141.865 107.299L142.038 105.6H143.784V106H142.406L142.303 106.929C142.47 106.831 142.659 106.782 142.871 106.782C143.182 106.782 143.428 106.885 143.611 107.091C143.793 107.295 143.885 107.572 143.885 107.922C143.885 108.273 143.789 108.55 143.599 108.752C143.41 108.954 143.146 109.054 142.806 109.054C142.505 109.054 142.259 108.971 142.069 108.804C141.878 108.637 141.77 108.406 141.743 108.111H142.153C142.179 108.306 142.249 108.454 142.361 108.553C142.473 108.652 142.622 108.701 142.806 108.701C143.007 108.701 143.165 108.632 143.278 108.495C143.394 108.358 143.452 108.168 143.452 107.926C143.452 107.698 143.389 107.516 143.264 107.379C143.141 107.24 142.977 107.17 142.771 107.17C142.582 107.17 142.434 107.212 142.326 107.294L142.211 107.388L141.865 107.299ZM145.303 107.737H144.161V107.383H145.303V107.737ZM147.51 107.863H147.982V108.216H147.51V109.007H147.074V108.216H145.523V107.961L147.049 105.6H147.51V107.863ZM146.014 107.863H147.074V106.192L147.023 106.286L146.014 107.863ZM150.201 107.863H150.674V108.216H150.201V109.007H149.766V108.216H148.214V107.961L149.74 105.6H150.201V107.863ZM148.706 107.863H149.766V106.192L149.714 106.286L148.706 107.863Z" fill="#8794BA"/>
<path d="M84.4866 141.812H84.9593V142.166H84.4866V142.957H84.0513V142.166H82.4997V141.911L84.0256 139.549H84.4866V141.812ZM82.9912 141.812H84.0513V140.141L83.9998 140.235L82.9912 141.812ZM85.5491 141.248L85.7222 139.549H87.4681V139.95H86.0897L85.9867 140.879C86.1536 140.78 86.3432 140.731 86.5554 140.731C86.8658 140.731 87.1124 140.834 87.2949 141.04C87.4774 141.244 87.5687 141.521 87.5687 141.871C87.5687 142.222 87.4735 142.499 87.2832 142.702C87.0944 142.903 86.83 143.004 86.4898 143.004C86.1887 143.004 85.943 142.92 85.7527 142.753C85.5623 142.586 85.4539 142.355 85.4274 142.06H85.8369C85.8634 142.255 85.9329 142.403 86.0452 142.503C86.1575 142.601 86.3057 142.65 86.4898 142.65C86.6911 142.65 86.8487 142.582 86.9626 142.444C87.078 142.307 87.1358 142.117 87.1358 141.876C87.1358 141.648 87.0733 141.465 86.9485 141.328C86.8253 141.189 86.6607 141.12 86.4547 141.12C86.266 141.12 86.1177 141.161 86.0101 141.244L85.8954 141.337L85.5491 141.248ZM88.9869 141.686H87.8449V141.333H88.9869V141.686ZM89.5649 141.248L89.7381 139.549H91.484V139.95H90.1055L90.0026 140.879C90.1695 140.78 90.3591 140.731 90.5713 140.731C90.8817 140.731 91.1282 140.834 91.3108 141.04C91.4933 141.244 91.5846 141.521 91.5846 141.871C91.5846 142.222 91.4894 142.499 91.2991 142.702C91.1103 142.903 90.8458 143.004 90.5057 143.004C90.2046 143.004 89.9589 142.92 89.7685 142.753C89.5782 142.586 89.4698 142.355 89.4432 142.06H89.8528C89.8793 142.255 89.9487 142.403 90.0611 142.503C90.1734 142.601 90.3216 142.65 90.5057 142.65C90.707 142.65 90.8646 142.582 90.9785 142.444C91.0939 142.307 91.1516 142.117 91.1516 141.876C91.1516 141.648 91.0892 141.465 90.9644 141.328C90.8412 141.189 90.6766 141.12 90.4706 141.12C90.2818 141.12 90.1336 141.161 90.026 141.244L89.9113 141.337L89.5649 141.248ZM93.8851 141.812H94.3578V142.166H93.8851V142.957H93.4498V142.166H91.8982V141.911L93.424 139.549H93.8851V141.812ZM92.3896 141.812H93.4498V140.141L93.3983 140.235L92.3896 141.812Z" fill="#8794BA"/>
<path d="M26.5418 107.299L26.715 105.6H28.4609V106H27.0824L26.9795 106.929C27.1464 106.831 27.336 106.782 27.5482 106.782C27.8586 106.782 28.1051 106.885 28.2877 107.091C28.4702 107.295 28.5615 107.572 28.5615 107.922C28.5615 108.273 28.4663 108.55 28.276 108.752C28.0872 108.954 27.8227 109.054 27.4826 109.054C27.1815 109.054 26.9358 108.971 26.7455 108.804C26.5551 108.637 26.4467 108.406 26.4202 108.111H26.8297C26.8562 108.306 26.9257 108.454 27.038 108.553C27.1503 108.652 27.2985 108.701 27.4826 108.701C27.6839 108.701 27.8415 108.632 27.9554 108.495C28.0708 108.358 28.1285 108.168 28.1285 107.926C28.1285 107.698 28.0661 107.516 27.9413 107.379C27.8181 107.24 27.6535 107.17 27.4475 107.17C27.2587 107.17 27.1105 107.212 27.0029 107.294L26.8882 107.388L26.5418 107.299ZM29.2331 107.299L29.4063 105.6H31.1522V106H29.7737L29.6708 106.929C29.8377 106.831 30.0273 106.782 30.2395 106.782C30.5499 106.782 30.7964 106.885 30.979 107.091C31.1615 107.295 31.2528 107.572 31.2528 107.922C31.2528 108.273 31.1576 108.55 30.9673 108.752C30.7785 108.954 30.514 109.054 30.1739 109.054C29.8728 109.054 29.6271 108.971 29.4367 108.804C29.2464 108.637 29.138 108.406 29.1115 108.111H29.521C29.5475 108.306 29.6169 108.454 29.7293 108.553C29.8416 108.652 29.9898 108.701 30.1739 108.701C30.3752 108.701 30.5328 108.632 30.6467 108.495C30.7621 108.358 30.8198 108.168 30.8198 107.926C30.8198 107.698 30.7574 107.516 30.6326 107.379C30.5094 107.24 30.3448 107.17 30.1388 107.17C29.95 107.17 29.8018 107.212 29.6942 107.294L29.5795 107.388L29.2331 107.299ZM32.671 107.737H31.5289V107.383H32.671V107.737ZM34.7491 105.598V105.965H34.6696C34.3326 105.971 34.0642 106.071 33.8645 106.265C33.6648 106.458 33.5494 106.73 33.5182 107.081C33.6976 106.875 33.9425 106.773 34.253 106.773C34.5494 106.773 34.7858 106.877 34.9621 107.086C35.14 107.295 35.2289 107.565 35.2289 107.896C35.2289 108.247 35.1329 108.528 34.941 108.738C34.7507 108.949 34.4948 109.054 34.1734 109.054C33.8474 109.054 33.5829 108.929 33.3801 108.68C33.1773 108.429 33.0758 108.106 33.0758 107.711V107.545C33.0758 106.918 33.2092 106.439 33.476 106.108C33.7444 105.776 34.143 105.605 34.6719 105.598H34.7491ZM34.1804 107.133C34.0322 107.133 33.8957 107.177 33.7709 107.266C33.6461 107.355 33.5595 107.467 33.5111 107.601V107.76C33.5111 108.041 33.5743 108.267 33.7007 108.439C33.8271 108.61 33.9846 108.696 34.1734 108.696C34.3684 108.696 34.5213 108.624 34.6321 108.481C34.7444 108.337 34.8006 108.149 34.8006 107.917C34.8006 107.683 34.7437 107.494 34.6298 107.351C34.5174 107.205 34.3677 107.133 34.1804 107.133ZM37.5691 107.863H38.0419V108.216H37.5691V109.007H37.1339V108.216H35.5823V107.961L37.1081 105.6H37.5691V107.863ZM36.0737 107.863H37.1339V106.192L37.0824 106.286L36.0737 107.863Z" fill="#8794BA"/>
<path d="M30.0359 53.2758V53.6432H29.9563C29.6193 53.6495 29.351 53.7493 29.1513 53.9428C28.9516 54.1362 28.8361 54.4085 28.8049 54.7595C28.9843 54.5536 29.2293 54.4506 29.5398 54.4506C29.8362 54.4506 30.0726 54.5551 30.2489 54.7642C30.4267 54.9733 30.5157 55.2432 30.5157 55.5739C30.5157 55.925 30.4197 56.2058 30.2278 56.4164C30.0375 56.627 29.7816 56.7324 29.4602 56.7324C29.1341 56.7324 28.8697 56.6075 28.6669 56.3579C28.464 56.1067 28.3626 55.7838 28.3626 55.389V55.2229C28.3626 54.5957 28.496 54.1167 28.7628 53.786C29.0312 53.4537 29.4298 53.2836 29.9587 53.2758H30.0359ZM29.4672 54.811C29.319 54.811 29.1825 54.8555 29.0577 54.9444C28.9329 55.0333 28.8463 55.1449 28.7979 55.2791V55.4382C28.7979 55.719 28.8611 55.9452 28.9875 56.1169C29.1138 56.2885 29.2714 56.3743 29.4602 56.3743C29.6552 56.3743 29.8081 56.3025 29.9189 56.159C30.0312 56.0155 30.0874 55.8275 30.0874 55.595C30.0874 55.361 30.0304 55.1722 29.9165 55.0286C29.8042 54.8835 29.6544 54.811 29.4672 54.811ZM31.2271 54.9772L31.4003 53.2781H33.1461V53.6783H31.7677L31.6647 54.6074C31.8317 54.5091 32.0212 54.46 32.2334 54.46C32.5439 54.46 32.7904 54.5629 32.9729 54.7689C33.1555 54.9733 33.2467 55.2502 33.2467 55.5997C33.2467 55.9507 33.1516 56.2276 32.9612 56.4305C32.7724 56.6317 32.508 56.7324 32.1679 56.7324C31.8668 56.7324 31.621 56.6489 31.4307 56.4819C31.2404 56.315 31.1319 56.0841 31.1054 55.7892H31.5149C31.5415 55.9842 31.6109 56.1317 31.7232 56.2315C31.8356 56.3298 31.9838 56.379 32.1679 56.379C32.3691 56.379 32.5267 56.3103 32.6406 56.173C32.7561 56.0357 32.8138 55.8462 32.8138 55.6043C32.8138 55.3766 32.7514 55.194 32.6266 55.0567C32.5033 54.9179 32.3387 54.8484 32.1328 54.8484C31.944 54.8484 31.7958 54.8898 31.6881 54.9725L31.5735 55.0661L31.2271 54.9772ZM35.0043 54.8578H35.9544V55.2674H35.0043V56.3439H34.569V55.2674H33.6188V54.8578H34.569V53.8632H35.0043V54.8578Z" fill="#8794BA"/>
</svg>
