<svg width="240" height="165" viewBox="0 0 240 165" fill="none" xmlns="http://www.w3.org/2000/svg">
<rect x="0.198242" y="0.906067" width="239.642" height="163.756" rx="11.9821" fill="white"/>
<rect x="27.5446" y="39.6483" width="26.3607" height="20.769" fill="white"/>
<rect x="53.9053" y="39.6483" width="26.3607" height="20.769" fill="white"/>
<path d="M67.0539 51.0536H66.6186V48.1681L65.7457 48.4887V48.0955L66.986 47.6298H67.0539V51.0536Z" fill="#172755"/>
<rect x="80.2659" y="39.6483" width="26.3607" height="20.769" fill="white"/>
<path d="M94.2243 51.0536H91.9917V50.7423L93.1712 49.4318C93.3459 49.2336 93.466 49.073 93.5316 48.9497C93.5986 48.8249 93.6322 48.6962 93.6322 48.5636C93.6322 48.3857 93.5784 48.2398 93.4707 48.1259C93.3631 48.012 93.2195 47.9551 93.0401 47.9551C92.8248 47.9551 92.6571 48.0167 92.5369 48.14C92.4184 48.2617 92.3591 48.4317 92.3591 48.6501H91.9261C91.9261 48.3366 92.0268 48.083 92.228 47.8896C92.4308 47.6961 92.7015 47.5994 93.0401 47.5994C93.3568 47.5994 93.6072 47.6828 93.7913 47.8498C93.9754 48.0152 94.0675 48.2359 94.0675 48.5121C94.0675 48.8475 93.8537 49.2469 93.4262 49.7103L92.5135 50.7002H94.2243V51.0536Z" fill="#172755"/>
<rect x="106.627" y="39.6483" width="26.3607" height="20.769" fill="white"/>
<path d="M118.982 49.1393H119.307C119.512 49.1361 119.672 49.0823 119.789 48.9778C119.906 48.8732 119.965 48.7321 119.965 48.5542C119.965 48.1548 119.766 47.9551 119.368 47.9551C119.181 47.9551 119.031 48.0089 118.919 48.1166C118.808 48.2227 118.753 48.3639 118.753 48.5402H118.32C118.32 48.2702 118.418 48.0464 118.614 47.8685C118.813 47.6891 119.064 47.5994 119.368 47.5994C119.689 47.5994 119.941 47.6844 120.124 47.8545C120.306 48.0245 120.398 48.2609 120.398 48.5636C120.398 48.7118 120.349 48.8553 120.253 48.9942C120.157 49.133 120.027 49.2368 119.862 49.3054C120.049 49.3647 120.193 49.463 120.295 49.6003C120.398 49.7376 120.449 49.9053 120.449 50.1034C120.449 50.4092 120.349 50.6518 120.15 50.8313C119.95 51.0107 119.69 51.1004 119.37 51.1004C119.05 51.1004 118.79 51.0138 118.589 50.8406C118.389 50.6674 118.289 50.4389 118.289 50.1549H118.724C118.724 50.3343 118.783 50.4779 118.9 50.5855C119.017 50.6932 119.174 50.747 119.37 50.747C119.579 50.747 119.739 50.6924 119.85 50.5832C119.961 50.474 120.016 50.3172 120.016 50.1128C120.016 49.9147 119.955 49.7625 119.834 49.6565C119.712 49.5504 119.536 49.4958 119.307 49.4926H118.982V49.1393Z" fill="#172755"/>
<rect x="132.987" y="39.6483" width="26.3607" height="20.769" fill="white"/>
<path d="M146.541 49.9092H147.013V50.2626H146.541V51.0536H146.105V50.2626H144.554V50.0075L146.08 47.6462H146.541V49.9092ZM145.045 49.9092H146.105V48.2383L146.054 48.3319L145.045 49.9092Z" fill="#172755"/>
<rect x="159.348" y="39.6483" width="26.3607" height="20.769" fill="white"/>
<path d="M171.273 49.3452L171.446 47.6462H173.192V48.0464H171.813L171.71 48.9754C171.877 48.8771 172.067 48.828 172.279 48.828C172.589 48.828 172.836 48.931 173.018 49.1369C173.201 49.3413 173.292 49.6182 173.292 49.9677C173.292 50.3187 173.197 50.5957 173.007 50.7985C172.818 50.9998 172.553 51.1004 172.213 51.1004C171.912 51.1004 171.666 51.0169 171.476 50.85C171.286 50.683 171.177 50.4521 171.151 50.1573H171.56C171.587 50.3523 171.656 50.4997 171.769 50.5996C171.881 50.6979 172.029 50.747 172.213 50.747C172.415 50.747 172.572 50.6784 172.686 50.5411C172.802 50.4038 172.859 50.2142 172.859 49.9724C172.859 49.7446 172.797 49.5621 172.672 49.4248C172.549 49.2859 172.384 49.2165 172.178 49.2165C171.989 49.2165 171.841 49.2578 171.734 49.3405L171.619 49.4341L171.273 49.3452Z" fill="#172755"/>
<rect x="185.708" y="39.6483" width="26.3607" height="20.769" fill="white"/>
<path d="M199.133 47.6438V48.0113H199.054C198.717 48.0175 198.448 48.1173 198.249 48.3108C198.049 48.5043 197.933 48.7765 197.902 49.1276C198.082 48.9216 198.327 48.8186 198.637 48.8186C198.934 48.8186 199.17 48.9232 199.346 49.1322C199.524 49.3413 199.613 49.6112 199.613 49.942C199.613 50.293 199.517 50.5738 199.325 50.7845C199.135 50.9951 198.879 51.1004 198.558 51.1004C198.231 51.1004 197.967 50.9756 197.764 50.726C197.561 50.4748 197.46 50.1518 197.46 49.7571V49.5909C197.46 48.9637 197.593 48.4848 197.86 48.154C198.129 47.8217 198.527 47.6516 199.056 47.6438H199.133ZM198.565 49.179C198.416 49.179 198.28 49.2235 198.155 49.3124C198.03 49.4014 197.944 49.5129 197.895 49.6471V49.8062C197.895 50.0871 197.958 50.3133 198.085 50.4849C198.211 50.6565 198.369 50.7423 198.558 50.7423C198.753 50.7423 198.905 50.6706 199.016 50.527C199.129 50.3835 199.185 50.1955 199.185 49.963C199.185 49.729 199.128 49.5402 199.014 49.3967C198.902 49.2516 198.752 49.179 198.565 49.179Z" fill="#172755"/>
<rect x="27.5446" y="60.4172" width="26.3607" height="20.769" fill="white"/>
<path d="M41.4702 68.6585L40.059 71.8226H39.605L41.0115 68.7709H39.1674V68.4152H41.4702V68.6585Z" fill="#172755"/>
<rect x="53.9053" y="60.4172" width="26.3607" height="20.769" fill="white"/>
<circle cx="66.8859" cy="70.602" r="7.78838" fill="#0088F0"/>
<path d="M67.6975 69.3045C67.6975 69.4745 67.6522 69.6258 67.5617 69.7585C67.4728 69.8911 67.3519 69.9948 67.199 70.0697C67.3768 70.1462 67.5173 70.2577 67.6202 70.4044C67.7248 70.551 67.777 70.7172 67.777 70.9028C67.777 71.1977 67.6772 71.4325 67.4775 71.6073C67.2793 71.782 67.018 71.8694 66.6935 71.8694C66.3658 71.8694 66.103 71.782 65.9048 71.6073C65.7082 71.431 65.6099 71.1962 65.6099 70.9028C65.6099 70.7187 65.6599 70.5526 65.7597 70.4044C65.8611 70.2562 66.0008 70.1438 66.1786 70.0674C66.0273 69.9925 65.9079 69.8887 65.8206 69.7561C65.7332 69.6235 65.6895 69.473 65.6895 69.3045C65.6895 69.0174 65.7816 68.7896 65.9657 68.6211C66.1498 68.4526 66.3924 68.3684 66.6935 68.3684C66.993 68.3684 67.2349 68.4526 67.419 68.6211C67.6046 68.7896 67.6975 69.0174 67.6975 69.3045ZM67.3441 70.8935C67.3441 70.7031 67.2832 70.5479 67.1615 70.4278C67.0414 70.3076 66.8838 70.2476 66.6888 70.2476C66.4938 70.2476 66.337 70.3069 66.2184 70.4254C66.1014 70.544 66.0429 70.7 66.0429 70.8935C66.0429 71.0869 66.0998 71.2391 66.2137 71.3498C66.3292 71.4606 66.4891 71.516 66.6935 71.516C66.8963 71.516 67.0554 71.4606 67.1709 71.3498C67.2863 71.2375 67.3441 71.0854 67.3441 70.8935ZM66.6935 68.7241C66.5234 68.7241 66.3853 68.7771 66.2793 68.8832C66.1747 68.9877 66.1225 69.1305 66.1225 69.3115C66.1225 69.4847 66.1739 69.6251 66.2769 69.7327C66.3814 69.8388 66.5203 69.8919 66.6935 69.8919C66.8667 69.8919 67.0047 69.8388 67.1077 69.7327C67.2122 69.6251 67.2645 69.4847 67.2645 69.3115C67.2645 69.1383 67.2107 68.9971 67.103 68.8879C66.9954 68.7787 66.8589 68.7241 66.6935 68.7241Z" fill="#EEEEF7"/>
<rect x="80.2659" y="60.4172" width="26.3607" height="20.769" fill="white"/>
<circle cx="93.2466" cy="70.602" r="7.78838" fill="#0088F0"/>
<path d="M93.6509 70.3248C93.5604 70.4325 93.452 70.519 93.3256 70.5846C93.2008 70.6501 93.0635 70.6829 92.9137 70.6829C92.7171 70.6829 92.5455 70.6345 92.3989 70.5378C92.2538 70.441 92.1414 70.3053 92.0619 70.1306C91.9823 69.9543 91.9425 69.76 91.9425 69.5478C91.9425 69.3201 91.9854 69.1149 92.0712 68.9324C92.1586 68.7498 92.2819 68.6102 92.441 68.5134C92.6001 68.4167 92.7858 68.3684 92.998 68.3684C93.335 68.3684 93.6002 68.4947 93.7937 68.7475C93.9887 68.9987 94.0862 69.3419 94.0862 69.7772V69.9036C94.0862 70.5666 93.9551 71.0511 93.693 71.3569C93.4309 71.6611 93.0354 71.8171 92.5065 71.8249H92.4223V71.4598H92.5135C92.8708 71.4536 93.1454 71.3608 93.3373 71.1813C93.5292 71.0004 93.6337 70.7148 93.6509 70.3248ZM92.9839 70.3248C93.129 70.3248 93.2624 70.2803 93.3841 70.1914C93.5074 70.1025 93.5971 69.9925 93.6532 69.8614V69.6883C93.6532 69.4043 93.5916 69.1734 93.4684 68.9955C93.3451 68.8177 93.1891 68.7288 93.0003 68.7288C92.81 68.7288 92.6571 68.8021 92.5416 68.9487C92.4262 69.0938 92.3684 69.2857 92.3684 69.5244C92.3684 69.7569 92.4238 69.9488 92.5346 70.1001C92.6469 70.2499 92.7967 70.3248 92.9839 70.3248Z" fill="#EEEEF7"/>
<rect x="106.627" y="60.4172" width="26.3607" height="20.769" fill="white"/>
<circle cx="119.607" cy="70.602" r="7.78838" fill="#0088F0"/>
<path d="M117.93 71.8226H117.494V68.937L116.621 69.2576V68.8645L117.862 68.3988H117.93V71.8226ZM121.335 70.3693C121.335 70.8763 121.248 71.2531 121.075 71.4996C120.902 71.7461 120.631 71.8694 120.263 71.8694C119.899 71.8694 119.63 71.7492 119.455 71.509C119.281 71.2671 119.19 70.9068 119.184 70.4278V69.8497C119.184 69.3489 119.271 68.9768 119.444 68.7334C119.617 68.49 119.888 68.3684 120.258 68.3684C120.625 68.3684 120.895 68.4861 121.068 68.7217C121.241 68.9558 121.33 69.3177 121.335 69.8076V70.3693ZM120.902 69.7772C120.902 69.4105 120.85 69.1438 120.747 68.9768C120.644 68.8083 120.481 68.7241 120.258 68.7241C120.037 68.7241 119.875 68.8075 119.774 68.9745C119.672 69.1414 119.62 69.3981 119.617 69.7444V70.4371C119.617 70.8053 119.67 71.0776 119.776 71.2539C119.884 71.4286 120.046 71.516 120.263 71.516C120.477 71.516 120.635 71.4333 120.738 71.2679C120.842 71.1026 120.897 70.842 120.902 70.4863V69.7772Z" fill="#EEEEF7"/>
<rect x="132.987" y="60.4172" width="26.3607" height="20.769" fill="white"/>
<path d="M144.29 71.8226H143.855V68.937L142.982 69.2576V68.8645L144.222 68.3988H144.29V71.8226ZM146.981 71.8226H146.546V68.937L145.673 69.2576V68.8645L146.914 68.3988H146.981V71.8226Z" fill="#172755"/>
<rect x="159.348" y="60.4172" width="26.3607" height="20.769" fill="white"/>
<path d="M170.651 71.8226H170.216V68.937L169.343 69.2576V68.8645L170.583 68.3988H170.651V71.8226ZM174.152 71.8226H171.919V71.5113L173.099 70.2008C173.274 70.0026 173.394 69.8419 173.459 69.7187C173.526 69.5939 173.56 69.4652 173.56 69.3325C173.56 69.1547 173.506 69.0088 173.398 68.8949C173.291 68.781 173.147 68.7241 172.968 68.7241C172.752 68.7241 172.585 68.7857 172.465 68.909C172.346 69.0306 172.287 69.2007 172.287 69.4191H171.854C171.854 69.1055 171.954 68.852 172.156 68.6585C172.358 68.4651 172.629 68.3684 172.968 68.3684C173.284 68.3684 173.535 68.4518 173.719 68.6188C173.903 68.7841 173.995 69.0049 173.995 69.2811C173.995 69.6165 173.781 70.0159 173.354 70.4793L172.441 71.4692H174.152V71.8226Z" fill="#172755"/>
<rect x="185.708" y="60.4172" width="26.3607" height="20.769" fill="white"/>
<path d="M197.011 71.8226H196.576V68.937L195.703 69.2576V68.8645L196.944 68.3988H197.011V71.8226ZM198.909 69.9082H199.235C199.439 69.9051 199.6 69.8513 199.717 69.7468C199.834 69.6422 199.892 69.501 199.892 69.3232C199.892 68.9238 199.693 68.7241 199.296 68.7241C199.108 68.7241 198.959 68.7779 198.846 68.8855C198.735 68.9916 198.68 69.1328 198.68 69.3091H198.247C198.247 69.0392 198.345 68.8153 198.542 68.6375C198.74 68.4581 198.991 68.3684 199.296 68.3684C199.617 68.3684 199.869 68.4534 200.051 68.6234C200.234 68.7935 200.325 69.0299 200.325 69.3325C200.325 69.4808 200.277 69.6243 200.18 69.7631C200.085 69.902 199.955 70.0058 199.789 70.0744C199.977 70.1337 200.121 70.232 200.222 70.3693C200.325 70.5066 200.377 70.6743 200.377 70.8724C200.377 71.1782 200.277 71.4208 200.077 71.6002C199.877 71.7797 199.618 71.8694 199.298 71.8694C198.978 71.8694 198.718 71.7828 198.516 71.6096C198.317 71.4364 198.217 71.2079 198.217 70.9239H198.652C198.652 71.1033 198.71 71.2469 198.827 71.3545C198.945 71.4622 199.101 71.516 199.298 71.516C199.507 71.516 199.667 71.4614 199.778 71.3522C199.888 71.243 199.944 71.0862 199.944 70.8818C199.944 70.6836 199.883 70.5315 199.761 70.4254C199.64 70.3193 199.464 70.2647 199.235 70.2616H198.909V69.9082Z" fill="#172755"/>
<rect x="27.5446" y="81.1863" width="26.3607" height="20.769" fill="white"/>
<path d="M38.8476 92.5916H38.4123V89.7061L37.5394 90.0267V89.6335L38.7797 89.1678H38.8476V92.5916ZM41.9437 91.4472H42.4165V91.8006H41.9437V92.5916H41.5084V91.8006H39.9569V91.5455L41.4827 89.1842H41.9437V91.4472ZM40.4483 91.4472H41.5084V89.7763L41.457 89.8699L40.4483 91.4472Z" fill="#172755"/>
<rect x="53.9053" y="81.1863" width="26.3607" height="20.769" fill="white"/>
<path d="M65.2082 92.5916H64.7729V89.7061L63.9 90.0267V89.6335L65.1404 89.1678H65.2082V92.5916ZM66.6756 90.8832L66.8488 89.1842H68.5946V89.5844H67.2162L67.1132 90.5135C67.2801 90.4152 67.4697 90.366 67.6819 90.366C67.9924 90.366 68.2389 90.469 68.4214 90.6749C68.6039 90.8793 68.6952 91.1563 68.6952 91.5057C68.6952 91.8568 68.6 92.1337 68.4097 92.3365C68.2209 92.5378 67.9565 92.6384 67.6164 92.6384C67.3152 92.6384 67.0695 92.5549 66.8792 92.388C66.6888 92.2211 66.5804 91.9902 66.5539 91.6953H66.9634C66.9899 91.8903 67.0594 92.0378 67.1717 92.1376C67.284 92.2359 67.4323 92.285 67.6164 92.285C67.8176 92.285 67.9752 92.2164 68.0891 92.0791C68.2045 91.9418 68.2623 91.7522 68.2623 91.5104C68.2623 91.2826 68.1999 91.1001 68.075 90.9628C67.9518 90.8239 67.7872 90.7545 67.5813 90.7545C67.3925 90.7545 67.2443 90.7959 67.1366 90.8785L67.0219 90.9722L66.6756 90.8832Z" fill="#172755"/>
<rect x="80.2659" y="81.1863" width="26.3607" height="20.769" fill="white"/>
<path d="M91.5689 92.5916H91.1336V89.7061L90.2607 90.0267V89.6335L91.501 89.1678H91.5689V92.5916ZM94.5363 89.1819V89.5493H94.4568C94.1198 89.5555 93.8514 89.6554 93.6517 89.8488C93.452 90.0423 93.3366 90.3145 93.3054 90.6656C93.4848 90.4596 93.7297 90.3567 94.0402 90.3567C94.3366 90.3567 94.573 90.4612 94.7493 90.6703C94.9272 90.8793 95.0161 91.1492 95.0161 91.48C95.0161 91.831 94.9201 92.1119 94.7282 92.3225C94.5379 92.5331 94.282 92.6384 93.9606 92.6384C93.6346 92.6384 93.3701 92.5136 93.1673 92.264C92.9645 92.0128 92.8631 91.6898 92.8631 91.2951V91.129C92.8631 90.5018 92.9964 90.0228 93.2632 89.692C93.5316 89.3597 93.9302 89.1897 94.4591 89.1819H94.5363ZM93.9677 90.7171C93.8194 90.7171 93.6829 90.7615 93.5581 90.8505C93.4333 90.9394 93.3467 91.0509 93.2983 91.1851V91.3443C93.2983 91.6251 93.3615 91.8513 93.4879 92.0229C93.6143 92.1946 93.7719 92.2804 93.9606 92.2804C94.1557 92.2804 94.3086 92.2086 94.4193 92.0651C94.5317 91.9215 94.5878 91.7335 94.5878 91.5011C94.5878 91.267 94.5309 91.0782 94.417 90.9347C94.3047 90.7896 94.1549 90.7171 93.9677 90.7171Z" fill="#172755"/>
<rect x="106.627" y="81.1863" width="26.3607" height="20.769" fill="white"/>
<path d="M117.93 92.5916H117.494V89.7061L116.621 90.0267V89.6335L117.862 89.1678H117.93V92.5916ZM121.398 89.4276L119.987 92.5916H119.533L120.939 89.5399H119.095V89.1842H121.398V89.4276Z" fill="#172755"/>
<rect x="132.987" y="81.1863" width="26.3607" height="20.769" fill="white"/>
<circle cx="145.968" cy="91.3711" r="7.78838" fill="#EF2A82"/>
<path d="M144.29 92.5916H143.855V89.7061L142.982 90.0267V89.6335L144.222 89.1678H144.29V92.5916ZM147.625 90.0735C147.625 90.2436 147.58 90.3949 147.489 90.5275C147.4 90.6601 147.279 90.7639 147.127 90.8388C147.304 90.9152 147.445 91.0268 147.548 91.1734C147.652 91.3201 147.705 91.4862 147.705 91.6719C147.705 91.9668 147.605 92.2016 147.405 92.3763C147.207 92.551 146.946 92.6384 146.621 92.6384C146.293 92.6384 146.031 92.551 145.832 92.3763C145.636 92.2 145.538 91.9652 145.538 91.6719C145.538 91.4878 145.587 91.3216 145.687 91.1734C145.789 91.0252 145.928 90.9129 146.106 90.8364C145.955 90.7615 145.836 90.6578 145.748 90.5252C145.661 90.3926 145.617 90.242 145.617 90.0735C145.617 89.7864 145.709 89.5586 145.893 89.3901C146.077 89.2216 146.32 89.1374 146.621 89.1374C146.921 89.1374 147.162 89.2216 147.347 89.3901C147.532 89.5586 147.625 89.7864 147.625 90.0735ZM147.272 91.6625C147.272 91.4722 147.211 91.317 147.089 91.1968C146.969 91.0767 146.811 91.0166 146.616 91.0166C146.421 91.0166 146.265 91.0759 146.146 91.1945C146.029 91.3131 145.971 91.4691 145.971 91.6625C145.971 91.856 146.027 92.0081 146.141 92.1189C146.257 92.2297 146.417 92.285 146.621 92.285C146.824 92.285 146.983 92.2297 147.099 92.1189C147.214 92.0065 147.272 91.8544 147.272 91.6625ZM146.621 89.4931C146.451 89.4931 146.313 89.5462 146.207 89.6523C146.102 89.7568 146.05 89.8995 146.05 90.0805C146.05 90.2537 146.102 90.3941 146.205 90.5018C146.309 90.6079 146.448 90.6609 146.621 90.6609C146.794 90.6609 146.932 90.6079 147.035 90.5018C147.14 90.3941 147.192 90.2537 147.192 90.0805C147.192 89.9073 147.138 89.7661 147.031 89.6569C146.923 89.5477 146.786 89.4931 146.621 89.4931Z" fill="#EEEEF7"/>
<rect x="159.348" y="81.1863" width="26.3607" height="20.769" fill="white"/>
<path d="M170.651 92.5916H170.216V89.7061L169.343 90.0267V89.6335L170.583 89.1678H170.651V92.5916ZM173.579 91.0938C173.488 91.2015 173.38 91.2881 173.253 91.3536C173.128 91.4191 172.991 91.4519 172.841 91.4519C172.645 91.4519 172.473 91.4035 172.326 91.3068C172.181 91.2101 172.069 91.0743 171.989 90.8996C171.91 90.7233 171.87 90.5291 171.87 90.3169C171.87 90.0891 171.913 89.8839 171.999 89.7014C172.086 89.5189 172.209 89.3792 172.369 89.2825C172.528 89.1858 172.713 89.1374 172.926 89.1374C173.263 89.1374 173.528 89.2638 173.721 89.5165C173.916 89.7677 174.014 90.1109 174.014 90.5462V90.6726C174.014 91.3357 173.883 91.8201 173.621 92.1259C173.359 92.4301 172.963 92.5862 172.434 92.594H172.35V92.2289H172.441C172.798 92.2226 173.073 92.1298 173.265 91.9504C173.457 91.7694 173.561 91.4839 173.579 91.0938ZM172.912 91.0938C173.057 91.0938 173.19 91.0494 173.312 90.9605C173.435 90.8715 173.525 90.7615 173.581 90.6305V90.4573C173.581 90.1733 173.519 89.9424 173.396 89.7646C173.273 89.5867 173.117 89.4978 172.928 89.4978C172.738 89.4978 172.585 89.5711 172.469 89.7178C172.354 89.8629 172.296 90.0548 172.296 90.2935C172.296 90.5259 172.351 90.7178 172.462 90.8692C172.575 91.019 172.724 91.0938 172.912 91.0938Z" fill="#172755"/>
<rect x="185.708" y="81.1863" width="26.3607" height="20.769" fill="white"/>
<path d="M197.821 92.5916H195.589V92.2804L196.768 90.9698C196.943 90.7717 197.063 90.611 197.128 90.4877C197.196 90.3629 197.229 90.2342 197.229 90.1016C197.229 89.9237 197.175 89.7778 197.068 89.664C196.96 89.5501 196.816 89.4931 196.637 89.4931C196.422 89.4931 196.254 89.5547 196.134 89.678C196.015 89.7997 195.956 89.9697 195.956 90.1882H195.523C195.523 89.8746 195.624 89.621 195.825 89.4276C196.028 89.2341 196.298 89.1374 196.637 89.1374C196.954 89.1374 197.204 89.2209 197.388 89.3878C197.572 89.5532 197.664 89.7739 197.664 90.0501C197.664 90.3855 197.451 90.7849 197.023 91.2483L196.11 92.2382H197.821V92.5916ZM200.417 91.1383C200.417 91.6454 200.33 92.0222 200.157 92.2687C199.984 92.5152 199.713 92.6384 199.345 92.6384C198.981 92.6384 198.712 92.5183 198.537 92.278C198.363 92.0362 198.272 91.6758 198.266 91.1968V90.6188C198.266 90.118 198.352 89.7459 198.526 89.5025C198.699 89.2591 198.97 89.1374 199.34 89.1374C199.707 89.1374 199.977 89.2552 200.15 89.4908C200.323 89.7248 200.412 90.0868 200.417 90.5767V91.1383ZM199.984 90.5462C199.984 90.1796 199.932 89.9128 199.829 89.7459C199.726 89.5774 199.563 89.4931 199.34 89.4931C199.118 89.4931 198.957 89.5766 198.856 89.7435C198.754 89.9105 198.702 90.1671 198.699 90.5135V91.2062C198.699 91.5744 198.752 91.8466 198.858 92.0229C198.966 92.1977 199.128 92.285 199.345 92.285C199.558 92.285 199.717 92.2024 199.82 92.037C199.924 91.8716 199.979 91.611 199.984 91.2553V90.5462Z" fill="#172755"/>
<rect x="27.5446" y="101.955" width="26.3607" height="20.769" fill="white"/>
<path d="M39.6573 113.361H37.4247V113.049L38.6042 111.739C38.7789 111.541 38.8991 111.38 38.9646 111.257C39.0317 111.132 39.0652 111.003 39.0652 110.871C39.0652 110.693 39.0114 110.547 38.9037 110.433C38.7961 110.319 38.6526 110.262 38.4731 110.262C38.2578 110.262 38.0901 110.324 37.97 110.447C37.8514 110.569 37.7921 110.739 37.7921 110.957H37.3592C37.3592 110.644 37.4598 110.39 37.6611 110.197C37.8639 110.003 38.1346 109.906 38.4731 109.906C38.7899 109.906 39.0403 109.99 39.2244 110.157C39.4085 110.322 39.5005 110.543 39.5005 110.819C39.5005 111.155 39.2868 111.554 38.8593 112.017L37.9466 113.007H39.6573V113.361ZM41.5389 113.361H41.1036V110.475L40.2307 110.796V110.403L41.471 109.937H41.5389V113.361Z" fill="#172755"/>
<rect x="53.9053" y="101.955" width="26.3607" height="20.769" fill="white"/>
<path d="M66.018 113.361H63.7854V113.049L64.9648 111.739C65.1396 111.541 65.2597 111.38 65.3252 111.257C65.3923 111.132 65.4259 111.003 65.4259 110.871C65.4259 110.693 65.3721 110.547 65.2644 110.433C65.1567 110.319 65.0132 110.262 64.8338 110.262C64.6185 110.262 64.4508 110.324 64.3306 110.447C64.2121 110.569 64.1528 110.739 64.1528 110.957H63.7198C63.7198 110.644 63.8205 110.39 64.0217 110.197C64.2245 110.003 64.4952 109.906 64.8338 109.906C65.1505 109.906 65.4009 109.99 65.585 110.157C65.7691 110.322 65.8612 110.543 65.8612 110.819C65.8612 111.155 65.6474 111.554 65.2199 112.017L64.3072 113.007H66.018V113.361ZM68.7093 113.361H66.4767V113.049L67.6561 111.739C67.8309 111.541 67.951 111.38 68.0165 111.257C68.0836 111.132 68.1172 111.003 68.1172 110.871C68.1172 110.693 68.0633 110.547 67.9557 110.433C67.848 110.319 67.7045 110.262 67.5251 110.262C67.3098 110.262 67.1421 110.324 67.0219 110.447C66.9034 110.569 66.8441 110.739 66.8441 110.957H66.4111C66.4111 110.644 66.5118 110.39 66.713 110.197C66.9158 110.003 67.1865 109.906 67.5251 109.906C67.8418 109.906 68.0922 109.99 68.2763 110.157C68.4604 110.322 68.5525 110.543 68.5525 110.819C68.5525 111.155 68.3387 111.554 67.9112 112.017L66.9985 113.007H68.7093V113.361Z" fill="#172755"/>
<rect x="80.2659" y="101.955" width="26.3607" height="20.769" fill="white"/>
<path d="M92.3786 113.361H90.146V113.049L91.3255 111.739C91.5002 111.541 91.6204 111.38 91.6859 111.257C91.753 111.132 91.7865 111.003 91.7865 110.871C91.7865 110.693 91.7327 110.547 91.6251 110.433C91.5174 110.319 91.3739 110.262 91.1944 110.262C90.9791 110.262 90.8114 110.324 90.6913 110.447C90.5727 110.569 90.5134 110.739 90.5134 110.957H90.0805C90.0805 110.644 90.1811 110.39 90.3824 110.197C90.5852 110.003 90.8559 109.906 91.1944 109.906C91.5112 109.906 91.7616 109.99 91.9457 110.157C92.1298 110.322 92.2218 110.543 92.2218 110.819C92.2218 111.155 92.0081 111.554 91.5806 112.017L90.6679 113.007H92.3786V113.361ZM93.4668 111.446H93.7921C93.9965 111.443 94.1572 111.389 94.2742 111.285C94.3912 111.18 94.4497 111.039 94.4497 110.861C94.4497 110.462 94.2508 110.262 93.853 110.262C93.6658 110.262 93.516 110.316 93.4037 110.424C93.2929 110.53 93.2375 110.671 93.2375 110.847H92.8045C92.8045 110.577 92.9028 110.353 93.0994 110.176C93.2976 109.996 93.5487 109.906 93.853 109.906C94.1744 109.906 94.4263 109.991 94.6089 110.161C94.7914 110.332 94.8827 110.568 94.8827 110.871C94.8827 111.019 94.8343 111.162 94.7376 111.301C94.6424 111.44 94.5122 111.544 94.3468 111.612C94.534 111.672 94.6783 111.77 94.7797 111.907C94.8827 112.045 94.9342 112.212 94.9342 112.41C94.9342 112.716 94.8343 112.959 94.6346 113.138C94.4349 113.318 94.1752 113.407 93.8553 113.407C93.5355 113.407 93.2749 113.321 93.0737 113.148C92.874 112.974 92.7741 112.746 92.7741 112.462H93.2094C93.2094 112.641 93.2679 112.785 93.3849 112.893C93.5019 113 93.6587 113.054 93.8553 113.054C94.0644 113.054 94.2243 112.999 94.3351 112.89C94.4458 112.781 94.5012 112.624 94.5012 112.42C94.5012 112.222 94.4404 112.07 94.3187 111.963C94.197 111.857 94.0215 111.803 93.7921 111.8H93.4668V111.446Z" fill="#172755"/>
<rect x="106.627" y="101.955" width="26.3607" height="20.769" fill="white"/>
<path d="M118.739 113.361H116.507V113.049L117.686 111.739C117.861 111.541 117.981 111.38 118.047 111.257C118.114 111.132 118.147 111.003 118.147 110.871C118.147 110.693 118.093 110.547 117.986 110.433C117.878 110.319 117.735 110.262 117.555 110.262C117.34 110.262 117.172 110.324 117.052 110.447C116.933 110.569 116.874 110.739 116.874 110.957H116.441C116.441 110.644 116.542 110.39 116.743 110.197C116.946 110.003 117.217 109.906 117.555 109.906C117.872 109.906 118.122 109.99 118.306 110.157C118.49 110.322 118.582 110.543 118.582 110.819C118.582 111.155 118.369 111.554 117.941 112.017L117.029 113.007H118.739V113.361ZM121.026 112.216H121.498V112.57H121.026V113.361H120.59V112.57H119.039V112.315L120.565 109.953H121.026V112.216ZM119.53 112.216H120.59V110.545L120.539 110.639L119.53 112.216Z" fill="#172755"/>
<rect x="132.987" y="101.955" width="26.3607" height="20.769" fill="white"/>
<path d="M145.1 113.361H142.867V113.049L144.047 111.739C144.222 111.541 144.342 111.38 144.407 111.257C144.474 111.132 144.508 111.003 144.508 110.871C144.508 110.693 144.454 110.547 144.346 110.433C144.239 110.319 144.095 110.262 143.916 110.262C143.7 110.262 143.533 110.324 143.413 110.447C143.294 110.569 143.235 110.739 143.235 110.957H142.802C142.802 110.644 142.902 110.39 143.104 110.197C143.307 110.003 143.577 109.906 143.916 109.906C144.232 109.906 144.483 109.99 144.667 110.157C144.851 110.322 144.943 110.543 144.943 110.819C144.943 111.155 144.729 111.554 144.302 112.017L143.389 113.007H145.1V113.361ZM145.758 111.652L145.931 109.953H147.677V110.353H146.298L146.195 111.282C146.362 111.184 146.552 111.135 146.764 111.135C147.074 111.135 147.321 111.238 147.503 111.444C147.686 111.648 147.777 111.925 147.777 112.275C147.777 112.626 147.682 112.903 147.492 113.106C147.303 113.307 147.038 113.407 146.698 113.407C146.397 113.407 146.151 113.324 145.961 113.157C145.771 112.99 145.662 112.759 145.636 112.464H146.045C146.072 112.659 146.141 112.807 146.254 112.907C146.366 113.005 146.514 113.054 146.698 113.054C146.9 113.054 147.057 112.985 147.171 112.848C147.287 112.711 147.344 112.521 147.344 112.279C147.344 112.052 147.282 111.869 147.157 111.732C147.034 111.593 146.869 111.523 146.663 111.523C146.474 111.523 146.326 111.565 146.219 111.648L146.104 111.741L145.758 111.652Z" fill="#172755"/>
<rect x="159.348" y="101.955" width="26.3607" height="20.769" fill="white"/>
<path d="M171.461 113.361H169.228V113.049L170.407 111.739C170.582 111.541 170.702 111.38 170.768 111.257C170.835 111.132 170.869 111.003 170.869 110.871C170.869 110.693 170.815 110.547 170.707 110.433C170.599 110.319 170.456 110.262 170.276 110.262C170.061 110.262 169.893 110.324 169.773 110.447C169.655 110.569 169.595 110.739 169.595 110.957H169.162C169.162 110.644 169.263 110.39 169.464 110.197C169.667 110.003 169.938 109.906 170.276 109.906C170.593 109.906 170.844 109.99 171.028 110.157C171.212 110.322 171.304 110.543 171.304 110.819C171.304 111.155 171.09 111.554 170.663 112.017L169.75 113.007H171.461V113.361ZM173.618 109.951V110.318H173.539C173.202 110.325 172.933 110.424 172.734 110.618C172.534 110.811 172.419 111.084 172.387 111.435C172.567 111.229 172.812 111.126 173.122 111.126C173.419 111.126 173.655 111.23 173.831 111.439C174.009 111.648 174.098 111.918 174.098 112.249C174.098 112.6 174.002 112.881 173.81 113.091C173.62 113.302 173.364 113.407 173.043 113.407C172.717 113.407 172.452 113.283 172.249 113.033C172.046 112.782 171.945 112.459 171.945 112.064V111.898C171.945 111.271 172.078 110.792 172.345 110.461C172.614 110.129 173.012 109.959 173.541 109.951H173.618ZM173.05 111.486C172.901 111.486 172.765 111.531 172.64 111.619C172.515 111.708 172.429 111.82 172.38 111.954V112.113C172.38 112.394 172.443 112.62 172.57 112.792C172.696 112.964 172.854 113.049 173.043 113.049C173.238 113.049 173.391 112.978 173.501 112.834C173.614 112.691 173.67 112.503 173.67 112.27C173.67 112.036 173.613 111.847 173.499 111.704C173.387 111.559 173.237 111.486 173.05 111.486Z" fill="#172755"/>
<rect x="185.708" y="101.955" width="26.3607" height="20.769" fill="white"/>
<path d="M197.821 113.361H195.589V113.049L196.768 111.739C196.943 111.541 197.063 111.38 197.128 111.257C197.196 111.132 197.229 111.003 197.229 110.871C197.229 110.693 197.175 110.547 197.068 110.433C196.96 110.319 196.816 110.262 196.637 110.262C196.422 110.262 196.254 110.324 196.134 110.447C196.015 110.569 195.956 110.739 195.956 110.957H195.523C195.523 110.644 195.624 110.39 195.825 110.197C196.028 110.003 196.298 109.906 196.637 109.906C196.954 109.906 197.204 109.99 197.388 110.157C197.572 110.322 197.664 110.543 197.664 110.819C197.664 111.155 197.451 111.554 197.023 112.017L196.11 113.007H197.821V113.361ZM200.48 110.197L199.069 113.361H198.615L200.021 110.309H198.177V109.953H200.48V110.197Z" fill="#172755"/>
<rect x="27.5446" y="122.724" width="26.3607" height="20.769" fill="white"/>
<path d="M39.6573 134.13H37.4247V133.818L38.6042 132.508C38.7789 132.31 38.8991 132.149 38.9646 132.026C39.0317 131.901 39.0652 131.772 39.0652 131.64C39.0652 131.462 39.0114 131.316 38.9037 131.202C38.7961 131.088 38.6526 131.031 38.4731 131.031C38.2578 131.031 38.0901 131.093 37.97 131.216C37.8514 131.338 37.7921 131.508 37.7921 131.726H37.3592C37.3592 131.413 37.4598 131.159 37.6611 130.966C37.8639 130.772 38.1346 130.675 38.4731 130.675C38.7899 130.675 39.0403 130.759 39.2244 130.926C39.4085 131.091 39.5005 131.312 39.5005 131.588C39.5005 131.923 39.2868 132.323 38.8593 132.786L37.9466 133.776H39.6573V134.13ZM42.1824 131.611C42.1824 131.782 42.1372 131.933 42.0467 132.065C41.9578 132.198 41.8369 132.302 41.684 132.377C41.8618 132.453 42.0022 132.565 42.1052 132.711C42.2097 132.858 42.262 133.024 42.262 133.21C42.262 133.505 42.1622 133.74 41.9625 133.914C41.7643 134.089 41.503 134.176 41.1785 134.176C40.8508 134.176 40.5879 134.089 40.3898 133.914C40.1932 133.738 40.0949 133.503 40.0949 133.21C40.0949 133.026 40.1449 132.86 40.2447 132.711C40.3461 132.563 40.4858 132.451 40.6636 132.374C40.5123 132.299 40.3929 132.196 40.3056 132.063C40.2182 131.931 40.1745 131.78 40.1745 131.611C40.1745 131.324 40.2666 131.097 40.4507 130.928C40.6348 130.76 40.8774 130.675 41.1785 130.675C41.478 130.675 41.7199 130.76 41.904 130.928C42.0896 131.097 42.1824 131.324 42.1824 131.611ZM41.8291 133.2C41.8291 133.01 41.7682 132.855 41.6465 132.735C41.5264 132.615 41.3688 132.555 41.1738 132.555C40.9788 132.555 40.822 132.614 40.7034 132.732C40.5864 132.851 40.5279 133.007 40.5279 133.2C40.5279 133.394 40.5848 133.546 40.6987 133.657C40.8142 133.768 40.9741 133.823 41.1785 133.823C41.3813 133.823 41.5404 133.768 41.6559 133.657C41.7713 133.545 41.8291 133.392 41.8291 133.2ZM41.1785 131.031C41.0084 131.031 40.8703 131.084 40.7642 131.19C40.6597 131.295 40.6074 131.438 40.6074 131.618C40.6074 131.792 40.6589 131.932 40.7619 132.04C40.8664 132.146 41.0053 132.199 41.1785 132.199C41.3517 132.199 41.4897 132.146 41.5927 132.04C41.6972 131.932 41.7495 131.792 41.7495 131.618C41.7495 131.445 41.6957 131.304 41.588 131.195C41.4804 131.086 41.3439 131.031 41.1785 131.031Z" fill="#172755"/>
<rect x="53.9053" y="122.724" width="26.3607" height="20.769" fill="white"/>
<path d="M66.018 134.13H63.7854V133.818L64.9648 132.508C65.1396 132.31 65.2597 132.149 65.3252 132.026C65.3923 131.901 65.4259 131.772 65.4259 131.64C65.4259 131.462 65.3721 131.316 65.2644 131.202C65.1567 131.088 65.0132 131.031 64.8338 131.031C64.6185 131.031 64.4508 131.093 64.3306 131.216C64.2121 131.338 64.1528 131.508 64.1528 131.726H63.7198C63.7198 131.413 63.8205 131.159 64.0217 130.966C64.2245 130.772 64.4952 130.675 64.8338 130.675C65.1505 130.675 65.4009 130.759 65.585 130.926C65.7691 131.091 65.8612 131.312 65.8612 131.588C65.8612 131.923 65.6474 132.323 65.2199 132.786L64.3072 133.776H66.018V134.13ZM68.1359 132.632C68.0454 132.739 67.937 132.826 67.8106 132.892C67.6858 132.957 67.5485 132.99 67.3987 132.99C67.2021 132.99 67.0305 132.942 66.8839 132.845C66.7388 132.748 66.6264 132.612 66.5469 132.438C66.4673 132.261 66.4275 132.067 66.4275 131.855C66.4275 131.627 66.4704 131.422 66.5562 131.239C66.6436 131.057 66.7668 130.917 66.926 130.82C67.0851 130.724 67.2708 130.675 67.483 130.675C67.82 130.675 68.0852 130.802 68.2787 131.054C68.4737 131.306 68.5712 131.649 68.5712 132.084V132.211C68.5712 132.874 68.4401 133.358 68.178 133.664C67.9159 133.968 67.5204 134.124 66.9915 134.132H66.9073V133.767H66.9985C67.3558 133.761 67.6304 133.668 67.8223 133.488C68.0142 133.307 68.1187 133.022 68.1359 132.632ZM67.4689 132.632C67.614 132.632 67.7474 132.587 67.8691 132.498C67.9924 132.409 68.0821 132.299 68.1382 132.168V131.995C68.1382 131.711 68.0766 131.48 67.9534 131.303C67.8301 131.125 67.6741 131.036 67.4853 131.036C67.295 131.036 67.1421 131.109 67.0266 131.256C66.9112 131.401 66.8534 131.593 66.8534 131.831C66.8534 132.064 66.9088 132.256 67.0196 132.407C67.1319 132.557 67.2817 132.632 67.4689 132.632Z" fill="#172755"/>
<rect x="80.2659" y="122.724" width="26.3607" height="20.769" fill="white"/>
<path d="M90.7755 132.215H91.1008C91.3052 132.212 91.4659 132.158 91.5829 132.054C91.6999 131.949 91.7585 131.808 91.7585 131.63C91.7585 131.231 91.5595 131.031 91.1617 131.031C90.9745 131.031 90.8247 131.085 90.7124 131.193C90.6016 131.299 90.5462 131.44 90.5462 131.616H90.1133C90.1133 131.346 90.2115 131.122 90.4081 130.944C90.6063 130.765 90.8575 130.675 91.1617 130.675C91.4831 130.675 91.735 130.76 91.9176 130.93C92.1001 131.101 92.1914 131.337 92.1914 131.64C92.1914 131.788 92.143 131.931 92.0463 132.07C91.9511 132.209 91.8209 132.313 91.6555 132.381C91.8427 132.441 91.987 132.539 92.0884 132.676C92.1914 132.814 92.2429 132.981 92.2429 133.179C92.2429 133.485 92.143 133.728 91.9433 133.907C91.7436 134.087 91.4839 134.176 91.164 134.176C90.8442 134.176 90.5836 134.09 90.3824 133.917C90.1827 133.743 90.0828 133.515 90.0828 133.231H90.5181C90.5181 133.41 90.5766 133.554 90.6936 133.662C90.8106 133.769 90.9674 133.823 91.164 133.823C91.3731 133.823 91.533 133.768 91.6438 133.659C91.7546 133.55 91.8099 133.393 91.8099 133.189C91.8099 132.991 91.7491 132.839 91.6274 132.732C91.5057 132.626 91.3302 132.572 91.1008 132.569H90.7755V132.215ZM94.974 132.676C94.974 133.183 94.8874 133.56 94.7142 133.807C94.541 134.053 94.2703 134.176 93.9021 134.176C93.5386 134.176 93.2695 134.056 93.0947 133.816C92.92 133.574 92.8295 133.214 92.8233 132.735V132.157C92.8233 131.656 92.9099 131.284 93.083 131.04C93.2562 130.797 93.5277 130.675 93.8974 130.675C94.2641 130.675 94.534 130.793 94.7072 131.029C94.8804 131.263 94.9693 131.625 94.974 132.115V132.676ZM94.541 132.084C94.541 131.718 94.4895 131.451 94.3866 131.284C94.2836 131.115 94.1206 131.031 93.8974 131.031C93.6759 131.031 93.5144 131.115 93.413 131.281C93.3116 131.448 93.2593 131.705 93.2562 132.051V132.744C93.2562 133.112 93.3093 133.385 93.4154 133.561C93.523 133.736 93.6853 133.823 93.9021 133.823C94.1159 133.823 94.2742 133.74 94.3772 133.575C94.4817 133.41 94.5363 133.149 94.541 132.793V132.084Z" fill="#172755"/>
<rect x="106.627" y="122.724" width="26.3607" height="20.769" fill="white"/>
<path d="M117.136 132.215H117.461C117.666 132.212 117.827 132.158 117.944 132.054C118.061 131.949 118.119 131.808 118.119 131.63C118.119 131.231 117.92 131.031 117.522 131.031C117.335 131.031 117.185 131.085 117.073 131.193C116.962 131.299 116.907 131.44 116.907 131.616H116.474C116.474 131.346 116.572 131.122 116.769 130.944C116.967 130.765 117.218 130.675 117.522 130.675C117.844 130.675 118.096 130.76 118.278 130.93C118.461 131.101 118.552 131.337 118.552 131.64C118.552 131.788 118.504 131.931 118.407 132.07C118.312 132.209 118.182 132.313 118.016 132.381C118.203 132.441 118.348 132.539 118.449 132.676C118.552 132.814 118.604 132.981 118.604 133.179C118.604 133.485 118.504 133.728 118.304 133.907C118.104 134.087 117.845 134.176 117.525 134.176C117.205 134.176 116.944 134.09 116.743 133.917C116.543 133.743 116.443 133.515 116.443 133.231H116.879C116.879 133.41 116.937 133.554 117.054 133.662C117.171 133.769 117.328 133.823 117.525 133.823C117.734 133.823 117.894 133.768 118.004 133.659C118.115 133.55 118.171 133.393 118.171 133.189C118.171 132.991 118.11 132.839 117.988 132.732C117.866 132.626 117.691 132.572 117.461 132.569H117.136V132.215ZM120.621 134.13H120.186V131.244L119.313 131.565V131.171L120.553 130.706H120.621V134.13Z" fill="#172755"/>
<rect x="132.987" y="122.724" width="26.3607" height="20.769" fill="white"/>
<rect x="159.348" y="122.724" width="26.3607" height="20.769" fill="white"/>
<rect x="185.708" y="122.724" width="26.3607" height="20.769" fill="white"/>
<path d="M35.4537 23.2676L36.5677 26.0479L37.6816 23.2676H38.2644V26.675H37.815V25.3481L37.8572 23.9159L36.7385 26.675H36.3945L35.2782 23.9229L35.3227 25.3481V26.675H34.8733V23.2676H35.4537ZM41.6788 25.0813C41.6788 25.4152 41.6226 25.707 41.5103 25.9566C41.398 26.2047 41.2388 26.3942 41.0329 26.5253C40.8269 26.6563 40.5867 26.7219 40.3121 26.7219C40.0437 26.7219 39.8058 26.6563 39.5983 26.5253C39.3908 26.3927 39.2293 26.2047 39.1139 25.9613C39 25.7163 38.9415 25.4332 38.9384 25.1118V24.866C38.9384 24.5384 38.9953 24.249 39.1092 23.9978C39.2231 23.7466 39.3838 23.5547 39.5913 23.4221C39.8003 23.2879 40.0391 23.2208 40.3074 23.2208C40.5804 23.2208 40.8207 23.2871 41.0282 23.4198C41.2373 23.5508 41.398 23.7419 41.5103 23.9931C41.6226 24.2427 41.6788 24.5337 41.6788 24.866V25.0813ZM41.2318 24.8613C41.2318 24.4573 41.1507 24.1476 40.9884 23.9323C40.8262 23.7154 40.5992 23.607 40.3074 23.607C40.0235 23.607 39.7996 23.7154 39.6358 23.9323C39.4735 24.1476 39.39 24.4471 39.3853 24.8309V25.0813C39.3853 25.4729 39.4673 25.7811 39.6311 26.0057C39.7964 26.2288 40.0235 26.3404 40.3121 26.3404C40.6023 26.3404 40.8269 26.2351 40.9861 26.0245C41.1452 25.8123 41.2271 25.5088 41.2318 25.1141V24.8613ZM44.9715 26.675H44.5199L42.8045 24.0493V26.675H42.3528V23.2676H42.8045L44.5245 25.9051V23.2676H44.9715V26.675Z" fill="#8794BA"/>
<path d="M64.6908 23.6374H63.5955V26.675H63.1485V23.6374H62.0556V23.2676H64.6908V23.6374ZM67.595 23.2676V25.5845C67.5935 25.9059 67.492 26.1688 67.2908 26.3732C67.0911 26.5775 66.8196 26.6922 66.4764 26.7172L66.357 26.7219C65.9841 26.7219 65.6869 26.6212 65.4654 26.42C65.2438 26.2187 65.1315 25.9418 65.1284 25.5892V23.2676H65.573V25.5751C65.573 25.8216 65.6409 26.0135 65.7766 26.1508C65.9124 26.2866 66.1058 26.3544 66.357 26.3544C66.6113 26.3544 66.8056 26.2866 66.9397 26.1508C67.0755 26.0151 67.1433 25.824 67.1433 25.5775V23.2676H67.595ZM70.2301 25.1001H68.7534V26.3076H70.4689V26.675H68.3041V23.2676H70.4455V23.6374H68.7534V24.7326H70.2301V25.1001Z" fill="#8794BA"/>
<path d="M88.7158 25.6009L88.7813 26.0502L88.8772 25.6453L89.5512 23.2676H89.9304L90.588 25.6453L90.6816 26.0572L90.7541 25.5985L91.283 23.2676H91.7347L90.9086 26.675H90.499L89.797 24.192L89.7431 23.9323L89.6893 24.192L88.9615 26.675H88.5519L87.7282 23.2676H88.1775L88.7158 25.6009ZM94.1615 25.1001H92.6848V26.3076H94.4002V26.675H92.2355V23.2676H94.3768V23.6374H92.6848V24.7326H94.1615V25.1001ZM94.9596 26.675V23.2676H95.9214C96.2178 23.2676 96.48 23.3332 96.7077 23.4642C96.9355 23.5953 97.111 23.7817 97.2343 24.0235C97.3591 24.2654 97.4223 24.5431 97.4239 24.8567V25.0743C97.4239 25.3957 97.3614 25.6773 97.2366 25.9191C97.1134 26.161 96.9363 26.3466 96.7054 26.4761C96.4761 26.6056 96.2085 26.6719 95.9027 26.675H94.9596ZM95.4089 23.6374V26.3076H95.8816C96.228 26.3076 96.4971 26.2 96.689 25.9847C96.8825 25.7694 96.9792 25.4628 96.9792 25.065V24.866C96.9792 24.4791 96.8879 24.1788 96.7054 23.965C96.5244 23.7497 96.267 23.6405 95.9331 23.6374H95.4089Z" fill="#8794BA"/>
<path d="M117.066 23.6374H115.97V26.675H115.523V23.6374H114.43V23.2676H117.066V23.6374ZM120.19 26.675H119.738V25.1001H118.02V26.675H117.571V23.2676H118.02V24.7326H119.738V23.2676H120.19V26.675ZM123.387 23.2676V25.5845C123.385 25.9059 123.284 26.1688 123.082 26.3732C122.883 26.5775 122.611 26.6922 122.268 26.7172L122.149 26.7219C121.776 26.7219 121.479 26.6212 121.257 26.42C121.035 26.2187 120.923 25.9418 120.92 25.5892V23.2676H121.365V25.5751C121.365 25.8216 121.433 26.0135 121.568 26.1508C121.704 26.2866 121.897 26.3544 122.149 26.3544C122.403 26.3544 122.597 26.2866 122.731 26.1508C122.867 26.0151 122.935 25.824 122.935 25.5775V23.2676H123.387Z" fill="#8794BA"/>
<path d="M144.189 25.1703H142.759V26.675H142.31V23.2676H144.421V23.6374H142.759V24.8028H144.189V25.1703ZM146.209 25.2966H145.409V26.675H144.957V23.2676H146.085C146.469 23.2676 146.764 23.355 146.97 23.5297C147.177 23.7045 147.281 23.9588 147.281 24.2927C147.281 24.5049 147.223 24.6897 147.108 24.8473C146.994 25.0049 146.835 25.1227 146.63 25.2007L147.431 26.647V26.675H146.948L146.209 25.2966ZM145.409 24.9292H146.099C146.322 24.9292 146.499 24.8715 146.63 24.756C146.763 24.6406 146.829 24.4861 146.829 24.2927C146.829 24.082 146.766 23.9206 146.64 23.8082C146.515 23.6959 146.334 23.639 146.097 23.6374H145.409V24.9292ZM148.395 26.675H147.945V23.2676H148.395V26.675Z" fill="#8794BA"/>
<path d="M168.865 25.1562C168.48 25.0454 168.199 24.9097 168.022 24.749C167.848 24.5868 167.76 24.3871 167.76 24.1499C167.76 23.8816 167.867 23.66 168.081 23.4853C168.296 23.309 168.575 23.2208 168.919 23.2208C169.153 23.2208 169.361 23.2661 169.544 23.3566C169.728 23.4471 169.87 23.5719 169.97 23.731C170.071 23.8901 170.122 24.0641 170.122 24.2529H169.67C169.67 24.0469 169.604 23.8855 169.473 23.7684C169.342 23.6499 169.157 23.5906 168.919 23.5906C168.697 23.5906 168.524 23.6397 168.399 23.738C168.276 23.8348 168.214 23.9697 168.214 24.1429C168.214 24.2817 168.273 24.3995 168.39 24.4963C168.508 24.5914 168.709 24.6788 168.991 24.7584C169.275 24.8379 169.497 24.9261 169.656 25.0228C169.817 25.118 169.935 25.2295 170.012 25.3575C170.09 25.4854 170.129 25.636 170.129 25.8092C170.129 26.0853 170.021 26.3068 169.806 26.4738C169.59 26.6392 169.303 26.7219 168.942 26.7219C168.708 26.7219 168.49 26.6774 168.287 26.5885C168.084 26.498 167.927 26.3747 167.816 26.2187C167.707 26.0627 167.653 25.8856 167.653 25.6875H168.104C168.104 25.8934 168.18 26.0564 168.331 26.1766C168.484 26.2951 168.688 26.3544 168.942 26.3544C169.179 26.3544 169.361 26.3061 169.487 26.2093C169.614 26.1126 169.677 25.9808 169.677 25.8138C169.677 25.6469 169.618 25.5182 169.501 25.4277C169.384 25.3356 169.172 25.2452 168.865 25.1562ZM172.588 25.7858H171.161L170.84 26.675H170.377L171.678 23.2676H172.071L173.375 26.675H172.914L172.588 25.7858ZM171.296 25.416H172.455L171.874 23.8223L171.296 25.416ZM175.883 23.6374H174.788V26.675H174.341V23.6374H173.248V23.2676H175.883V23.6374Z" fill="#8794BA"/>
<path d="M194.804 25.1562C194.419 25.0454 194.138 24.9097 193.962 24.749C193.787 24.5868 193.7 24.3871 193.7 24.1499C193.7 23.8816 193.807 23.66 194.021 23.4853C194.236 23.309 194.515 23.2208 194.858 23.2208C195.092 23.2208 195.301 23.2661 195.483 23.3566C195.667 23.4471 195.809 23.5719 195.909 23.731C196.011 23.8901 196.061 24.0641 196.061 24.2529H195.61C195.61 24.0469 195.544 23.8855 195.413 23.7684C195.282 23.6499 195.097 23.5906 194.858 23.5906C194.637 23.5906 194.464 23.6397 194.339 23.738C194.216 23.8348 194.154 23.9697 194.154 24.1429C194.154 24.2817 194.212 24.3995 194.329 24.4963C194.448 24.5914 194.648 24.6788 194.931 24.7584C195.215 24.8379 195.436 24.9261 195.595 25.0228C195.756 25.118 195.875 25.2295 195.951 25.3575C196.029 25.4854 196.068 25.636 196.068 25.8092C196.068 26.0853 195.961 26.3068 195.745 26.4738C195.53 26.6392 195.242 26.7219 194.882 26.7219C194.648 26.7219 194.429 26.6774 194.226 26.5885C194.024 26.498 193.867 26.3747 193.756 26.2187C193.647 26.0627 193.592 25.8856 193.592 25.6875H194.044C194.044 25.8934 194.12 26.0564 194.271 26.1766C194.424 26.2951 194.627 26.3544 194.882 26.3544C195.119 26.3544 195.301 26.3061 195.427 26.2093C195.553 26.1126 195.617 25.9808 195.617 25.8138C195.617 25.6469 195.558 25.5182 195.441 25.4277C195.324 25.3356 195.112 25.2452 194.804 25.1562ZM199.045 23.2676V25.5845C199.043 25.9059 198.942 26.1688 198.741 26.3732C198.541 26.5775 198.27 26.6922 197.926 26.7172L197.807 26.7219C197.434 26.7219 197.137 26.6212 196.915 26.42C196.694 26.2187 196.582 25.9418 196.578 25.5892V23.2676H197.023V25.5751C197.023 25.8216 197.091 26.0135 197.227 26.1508C197.362 26.2866 197.556 26.3544 197.807 26.3544C198.061 26.3544 198.256 26.2866 198.39 26.1508C198.525 26.0151 198.593 25.824 198.593 25.5775V23.2676H199.045ZM202.373 26.675H201.921L200.206 24.0493V26.675H199.754V23.2676H200.206L201.926 25.9051V23.2676H202.373V26.675Z" fill="#8794BA"/>
</svg>
